<svg version="1.1" id="Layer_1" xmlns="http://www.w3.org/2000/svg" xmlns:xlink="http://www.w3.org/1999/xlink" x="0px" y="0px"
	 width="100%" viewBox="0 0 1920 300" enable-background="new 0 0 1920 300" xml:space="preserve">
<path fill="#000000" opacity="0.000000" stroke="none" 
	d="
M1426.000000,301.000000 
	C950.720032,301.000000 475.940094,301.000000 1.080067,301.000000 
	C1.080067,201.064682 1.080067,101.129265 1.080067,1.096929 
	C641.000000,1.096929 1281.000000,1.096929 1920.971680,1.096929 
	C1920.971680,101.060173 1920.971680,201.030090 1920.971680,301.000000 
	C1756.129028,301.000000 1591.314453,301.000000 1426.000000,301.000000 
M353.379211,124.000000 
	C354.822571,124.000000 356.265930,124.000000 358.395172,124.000000 
	C357.820953,116.776520 358.083374,109.914345 356.621796,103.441437 
	C350.105011,74.580101 326.313354,56.763638 297.081726,56.971279 
	C276.252808,57.119236 255.420670,57.114376 234.593506,56.872360 
	C231.590530,56.837467 227.764023,55.948654 225.760590,53.984333 
	C216.886230,45.283222 207.955505,36.515350 200.170319,26.864050 
	C192.992157,17.965303 177.533875,15.978156 171.156052,24.333347 
	C166.134293,30.912088 160.677078,37.194656 156.093704,44.062851 
	C150.094604,53.052570 142.866196,57.721939 131.361267,57.238625 
	C111.067024,56.386074 90.709038,56.835854 70.382454,57.101528 
	C64.401108,57.179707 58.170635,57.614407 52.507801,59.358265 
	C24.688431,67.925171 6.928406,93.514282 11.539264,123.731552 
	C23.613104,123.731552 35.686943,123.731552 48.000000,123.731552 
	C48.000000,121.491081 48.104282,119.510315 47.982937,117.543472 
	C47.239910,105.500168 57.063858,94.506889 70.394264,94.842918 
	C93.042885,95.413849 115.725830,95.365166 138.373505,94.775764 
	C145.100311,94.600700 151.945374,92.274902 158.403732,89.993355 
	C169.005783,86.247971 177.029877,78.772018 183.539291,69.819130 
	C185.624847,66.950714 186.409409,67.836235 188.008133,69.880386 
	C200.570450,85.942757 216.808151,94.894569 237.456177,94.980835 
	C258.285797,95.067856 279.116333,94.935898 299.945862,95.033997 
	C307.463470,95.069397 316.773376,98.416901 318.990723,110.210938 
	C319.824860,114.647530 320.016296,119.204964 320.532196,124.000000 
	C331.131836,124.000000 341.765625,124.000000 353.379211,124.000000 
M319.984192,194.917847 
	C319.654724,195.814941 319.305298,196.705292 318.998932,197.610214 
	C316.465515,205.093292 309.844147,210.902481 303.609344,210.992371 
	C279.200043,211.344345 254.788147,211.561432 230.381866,212.058090 
	C222.040176,212.227844 214.376648,215.070526 207.159836,219.284821 
	C199.710571,223.634872 193.561707,229.324600 188.311447,236.114517 
	C186.464478,238.503128 185.043869,238.929321 182.775085,235.705994 
	C176.717194,227.099396 168.699677,220.736862 158.961395,216.342178 
	C149.969467,212.284302 140.451553,211.348083 130.971436,211.143951 
	C109.655266,210.684952 88.315208,210.683197 67.000229,211.169052 
	C59.374504,211.342865 49.703053,203.868805 48.974747,195.355438 
	C48.630474,191.331146 48.019527,187.329651 47.490574,183.000000 
	C41.568573,183.000000 35.602795,183.000000 29.637018,183.000000 
	C23.526466,183.000000 17.415916,183.000000 11.363270,183.000000 
	C9.737343,199.581482 12.595406,213.428665 22.769270,226.466980 
	C33.868370,240.691010 48.314674,248.455933 66.128853,248.868896 
	C89.275177,249.405472 112.443771,248.922211 135.601822,249.050781 
	C141.961700,249.086090 147.416016,251.480484 151.360153,256.805603 
	C157.265366,264.778442 162.932007,272.961517 169.311005,280.541016 
	C176.400604,288.964874 187.453384,290.940430 195.468704,283.679779 
	C203.978668,275.971069 211.619400,267.173431 218.819672,258.193787 
	C223.616821,252.211136 229.300674,249.123077 236.563538,249.064667 
	C258.721191,248.886444 280.881927,249.090057 303.039642,248.913834 
	C306.859009,248.883469 310.704041,247.880371 314.477600,247.054260 
	C327.327698,244.241104 337.567230,237.089096 345.482910,226.894943 
	C355.424164,214.092117 359.278992,199.363068 357.732300,183.293213 
	C345.000031,183.293213 332.594147,183.293213 319.998993,183.293213 
	C319.998993,187.064224 319.998993,190.544952 319.984192,194.917847 
M1318.436523,127.951218 
	C1312.945557,120.600746 1307.315308,113.570183 1296.566406,114.949890 
	C1293.944458,115.286438 1291.242676,114.995132 1288.577515,115.000984 
	C1282.535767,115.014252 1279.025513,118.394989 1279.017090,124.483795 
	C1278.981323,150.468643 1279.006592,176.453583 1279.029419,202.438492 
	C1279.029785,202.884415 1279.280396,203.330124 1279.401611,203.733978 
	C1288.272217,203.733978 1297.008057,203.733978 1306.064209,203.733978 
	C1306.064209,186.053162 1306.064209,168.635315 1306.064209,149.661697 
	C1308.545410,151.666382 1310.271729,152.718201 1311.554565,154.163651 
	C1315.017700,158.066147 1318.245239,162.176483 1321.651001,166.131378 
	C1328.278076,173.826920 1335.363525,181.166367 1341.521973,189.217148 
	C1349.084595,199.103714 1358.191406,204.646851 1371.014404,204.143478 
	C1377.678101,203.881897 1383.273071,200.694031 1383.131592,191.849365 
	C1382.748047,167.869354 1383.000000,143.879181 1383.000000,119.893028 
	C1383.000000,118.306450 1383.000000,116.719879 1383.000000,115.324783 
	C1373.607666,115.324783 1364.869629,115.324783 1355.502686,115.324783 
	C1355.502686,133.321457 1355.502686,150.996796 1355.502686,170.013779 
	C1342.686279,155.431854 1330.825684,141.937485 1318.436523,127.951218 
M1617.496826,193.997421 
	C1624.597656,201.281921 1633.020752,204.773285 1643.385742,204.101791 
	C1651.512817,203.575256 1654.993164,200.575729 1654.996460,192.480392 
	C1655.006348,168.160858 1655.003784,143.841324 1654.990601,119.521805 
	C1654.989746,118.084778 1654.852417,116.647827 1654.782104,115.279472 
	C1645.700195,115.279472 1636.963989,115.279472 1628.133789,115.279472 
	C1627.569824,133.241196 1628.622803,150.979919 1627.495728,170.092484 
	C1618.557739,159.915482 1610.790649,151.068970 1603.020020,142.225647 
	C1598.800293,137.423386 1594.155029,132.927536 1590.445435,127.759537 
	C1584.198120,119.056099 1576.914673,113.118744 1565.418823,114.971672 
	C1564.119873,115.181023 1562.758179,114.999672 1561.425537,115.000053 
	C1554.140503,115.002106 1551.004272,118.188133 1551.002441,125.634750 
	C1550.996094,150.287430 1550.996094,174.940094 1551.010010,199.592773 
	C1551.010864,201.020233 1551.157715,202.447601 1551.225708,203.680023 
	C1560.382324,203.680023 1569.120117,203.680023 1578.191650,203.680023 
	C1578.191650,185.965210 1578.191650,168.568405 1578.191650,150.156876 
	C1580.033447,151.353455 1581.356812,151.905228 1582.257690,152.856995 
	C1584.847656,155.593002 1587.305176,158.458038 1589.746094,161.330765 
	C1598.843262,172.037186 1607.913208,182.766861 1617.496826,193.997421 
M490.927338,161.404480 
	C489.223541,160.339310 487.519775,159.274155 485.816010,158.208984 
	C486.527252,158.718353 487.238495,159.227722 487.949768,159.737091 
	C489.939270,156.679718 491.964294,153.644760 493.909821,150.559662 
	C496.787445,145.996643 498.703644,141.544815 497.357880,135.621582 
	C494.651581,123.709854 480.966827,115.054245 468.805450,115.016022 
	C449.642181,114.955795 430.478546,114.992950 411.315063,115.003937 
	C404.844849,115.007637 401.076416,118.345779 401.045044,124.729301 
	C400.931244,147.891556 400.933960,171.054993 401.043060,194.217300 
	C401.073242,200.625839 404.819458,203.991135 411.261658,203.995605 
	C429.425293,204.008209 447.590454,204.138046 465.751831,203.935440 
	C473.561768,203.848312 481.085846,201.963455 487.924286,197.991074 
	C495.288483,193.713272 499.526367,187.034134 499.803528,178.755157 
	C500.026215,172.103027 496.788544,166.271820 490.927338,161.404480 
M1394.000122,152.743591 
	C1394.666992,162.552094 1394.358643,172.554077 1396.256348,182.118393 
	C1398.454712,193.198624 1404.227051,202.348053 1417.037231,204.018478 
	C1425.093872,205.069061 1433.180176,206.925339 1441.225830,206.790039 
	C1453.972168,206.575729 1466.763916,205.508362 1479.404541,203.816116 
	C1488.042236,202.659760 1495.006592,198.029526 1498.880493,189.538727 
	C1502.282349,182.082672 1503.144775,174.285553 1502.993774,166.262604 
	C1502.904663,161.529755 1499.992310,157.260361 1495.230103,157.148636 
	C1478.918213,156.765991 1462.591919,157.001877 1446.262695,157.001877 
	C1446.262695,160.599609 1446.262695,164.670502 1446.262695,169.068726 
	C1455.958740,169.068726 1465.398193,169.068726 1476.515991,169.068726 
	C1473.519897,175.698471 1471.757324,182.030762 1468.160767,187.048523 
	C1460.763794,197.368286 1438.663086,197.375366 1429.503906,188.005920 
	C1418.799316,177.055618 1420.338501,163.364273 1421.656006,150.104675 
	C1422.146606,145.166046 1424.829590,139.907578 1427.927002,135.883453 
	C1433.472290,128.678848 1441.990112,127.630066 1450.489990,128.043976 
	C1469.564575,128.972839 1472.786133,134.818893 1475.533936,147.752380 
	C1484.309448,147.752380 1493.076782,147.752380 1502.029419,147.752380 
	C1502.002930,137.089584 1497.268799,129.092926 1489.183105,123.064713 
	C1479.529663,115.867729 1467.848022,114.740143 1456.510376,114.244812 
	C1445.740479,113.774300 1434.815430,114.808235 1424.082764,116.164482 
	C1415.202271,117.286659 1407.058472,120.478195 1401.632080,128.705170 
	C1396.939331,135.819626 1395.365723,143.718063 1394.000122,152.743591 
M694.959412,121.450302 
	C693.967285,123.267273 692.752930,124.999107 692.019104,126.915001 
	C687.209595,139.470352 682.493225,152.061462 677.767700,164.648849 
	C672.876099,177.678604 668.008362,190.717361 663.037537,203.999954 
	C671.294556,203.999954 679.124817,204.115814 686.945251,203.890854 
	C688.317810,203.851364 690.395813,202.691620 690.879150,201.524002 
	C694.122375,193.689011 696.996643,185.702026 700.049377,177.787033 
	C700.969788,175.400772 702.166565,173.809799 705.399902,173.894684 
	C716.054016,174.174438 726.721497,174.094696 737.380554,173.935852 
	C740.172241,173.894257 741.193542,174.923508 742.090027,177.481659 
	C744.946594,185.633591 748.116516,193.679565 751.366455,201.684891 
	C751.780334,202.704391 753.372253,203.874100 754.442932,203.898453 
	C762.555664,204.083145 770.674561,203.999420 779.191284,203.999420 
	C776.338196,196.002701 773.746338,188.456863 770.952515,180.986557 
	C768.147461,173.486191 765.111389,166.072586 762.229736,158.600418 
	C757.681030,146.805283 753.442993,134.880844 748.536194,123.237572 
	C746.252502,117.818924 741.619873,114.865501 735.316040,114.962784 
	C725.989441,115.106712 716.655029,115.164787 707.331848,114.935379 
	C702.117615,114.807068 698.141602,116.664543 694.959412,121.450302 
M834.499146,128.000000 
	C839.663513,128.000015 844.860474,127.639549 849.982971,128.102798 
	C854.971497,128.553955 860.135193,129.668945 862.428406,135.003311 
	C866.410828,144.267273 860.535400,152.988312 850.478394,152.995941 
	C831.820679,153.010101 813.163025,152.994980 794.505310,153.009827 
	C793.069519,153.010971 791.633911,153.151978 790.282166,153.223511 
	C790.282166,170.307617 790.282166,187.041153 790.282166,203.717926 
	C799.303894,203.717926 808.040588,203.717926 817.165161,203.717926 
	C817.165161,191.034042 817.165161,178.627518 817.165161,166.000000 
	C821.364380,166.000000 825.240234,166.448837 828.965332,165.891129 
	C834.101624,165.122116 837.058716,167.960510 839.729187,171.364914 
	C847.636536,181.445618 855.355286,191.674515 863.294739,201.729492 
	C864.191406,202.865067 866.010864,203.868195 867.426025,203.900650 
	C876.083618,204.099228 884.747925,203.999969 894.519775,203.999969 
	C884.359436,190.875381 874.628174,178.304947 864.547974,165.283829 
	C865.897217,165.150528 866.671692,165.142365 867.416809,164.990112 
	C877.312500,162.968033 886.263550,159.895264 889.771057,148.769943 
	C892.939087,138.721451 888.429199,125.560837 881.154419,120.541115 
	C874.809387,116.162880 867.544128,115.288330 860.392822,115.141243 
	C840.577454,114.733650 820.748169,114.999840 800.924377,115.000053 
	C791.425659,115.000160 788.836548,118.198837 790.620300,128.000000 
	C804.885803,128.000000 819.192688,128.000000 834.499146,128.000000 
M918.507935,153.000000 
	C914.073425,153.000000 909.638855,153.000000 905.281799,153.000000 
	C905.281799,170.304672 905.281799,187.039291 905.281799,203.717422 
	C914.303772,203.717422 923.041077,203.717422 932.000000,203.717422 
	C932.000000,192.463623 932.114807,181.489151 931.933411,170.519547 
	C931.875366,167.007645 933.028625,165.724503 936.533813,165.945404 
	C940.350525,166.185944 944.204834,165.835358 948.020447,166.083908 
	C949.475952,166.178711 951.374207,166.824249 952.213745,167.892349 
	C960.929443,178.980423 969.435486,190.233078 978.110535,201.353577 
	C979.019653,202.518875 980.622498,203.850845 981.932434,203.881897 
	C991.142883,204.100327 1000.360962,203.997757 1010.020203,203.997757 
	C999.904663,190.944855 990.225403,178.454910 980.432190,165.817917 
	C984.406189,164.737457 987.657166,163.959778 990.842224,162.970139 
	C1009.656189,157.124207 1009.291443,134.193634 1000.187927,123.712570 
	C993.972595,116.556747 985.247986,115.325539 976.700806,115.139183 
	C956.718079,114.703484 936.719421,114.999786 916.727173,115.000099 
	C907.748535,115.000244 904.431274,118.695702 905.401733,128.000000 
	C907.000183,128.000000 908.638428,128.000000 910.276611,128.000000 
	C928.436218,128.000000 946.602295,127.742264 964.750427,128.199295 
	C968.785522,128.300903 973.918518,129.857803 976.468811,132.645172 
	C979.772644,136.256073 980.293640,141.783615 977.700378,146.824570 
	C975.323792,151.444122 971.425232,153.031235 966.486450,153.016846 
	C950.825989,152.971222 935.165344,153.000000 918.507935,153.000000 
M1693.000000,167.651764 
	C1692.340576,164.381439 1693.959961,163.910248 1696.856079,163.935181 
	C1712.677490,164.071350 1728.500732,164.034271 1744.323242,163.984909 
	C1751.761597,163.961700 1755.482178,159.612930 1754.491577,151.889267 
	C1734.130127,151.889267 1713.718018,151.889267 1693.239502,151.889267 
	C1693.239502,143.448151 1693.239502,135.380188 1693.239502,127.000000 
	C1695.106323,127.000000 1696.737671,127.000000 1698.369019,127.000000 
	C1715.690552,127.000000 1733.012329,127.039894 1750.333618,126.980171 
	C1757.174438,126.956589 1762.680298,123.178886 1761.383911,115.000000 
	C1733.113281,115.000000 1704.811035,115.086685 1676.509766,114.951675 
	C1666.958252,114.906105 1665.422974,118.104713 1665.204834,126.213150 
	C1664.609253,148.348740 1664.867554,170.512115 1665.077881,192.661743 
	C1665.144287,199.642365 1668.118652,204.026169 1676.405029,204.013641 
	C1701.388062,203.975876 1726.371094,204.003586 1751.354126,203.997787 
	C1758.773438,203.996048 1762.515869,199.658707 1761.470337,191.878571 
	C1738.780273,191.878571 1716.037476,191.878571 1693.000000,191.878571 
	C1693.000000,183.881088 1693.000000,176.251862 1693.000000,167.651764 
M1228.500000,115.000000 
	C1213.509155,115.000000 1198.510254,115.290039 1183.530640,114.880394 
	C1175.779907,114.668449 1172.293091,118.091347 1172.143921,126.119606 
	C1171.729126,148.431702 1171.829468,170.758636 1172.104980,193.075043 
	C1172.186646,199.691116 1175.032837,204.009750 1183.320679,204.005081 
	C1208.305542,203.990997 1233.290405,204.002960 1258.275269,203.998199 
	C1265.735352,203.996780 1269.432251,199.788162 1268.548706,191.921707 
	C1245.843994,191.921707 1223.095337,191.921707 1200.219604,191.921707 
	C1200.219604,182.488846 1200.219604,173.420883 1200.219604,164.000000 
	C1202.060425,164.000000 1203.686768,164.000000 1205.313232,164.000000 
	C1220.637329,164.000000 1235.961426,164.032959 1251.285400,163.985855 
	C1258.746094,163.962936 1262.444336,159.680145 1261.528442,151.908813 
	C1241.159668,151.908813 1220.744263,151.908813 1200.228760,151.908813 
	C1200.228760,143.470734 1200.228760,135.402252 1200.228760,127.000000 
	C1202.081665,127.000000 1203.710327,127.000000 1205.339111,127.000000 
	C1222.661987,126.999992 1239.984863,127.039764 1257.307495,126.980484 
	C1264.263062,126.956688 1269.641235,123.118874 1268.405762,115.000000 
	C1255.458740,115.000000 1242.479370,115.000000 1228.500000,115.000000 
M1078.500000,204.000000 
	C1087.828613,204.000000 1097.157227,204.008881 1106.485840,203.997238 
	C1114.161743,203.987640 1117.631104,199.893723 1116.419922,191.855286 
	C1093.739624,191.855286 1070.998657,191.855286 1048.264404,191.855286 
	C1048.264404,182.398636 1048.264404,173.329300 1048.264404,164.000000 
	C1064.657593,164.000000 1080.787842,164.000000 1096.918091,164.000000 
	C1107.052856,164.000000 1109.005249,162.240250 1110.170654,151.815552 
	C1089.540649,151.815552 1068.939575,151.815552 1048.225464,151.815552 
	C1048.225464,143.478561 1048.225464,135.409607 1048.225464,127.000000 
	C1050.074097,127.000000 1051.702271,127.000000 1053.330322,127.000000 
	C1070.987915,127.000000 1088.645752,127.028412 1106.303223,126.986122 
	C1113.457275,126.968994 1117.517456,122.198410 1116.438721,115.000366 
	C1087.170410,115.000366 1057.867554,114.966492 1028.564941,115.038277 
	C1024.354004,115.048592 1021.009949,119.163452 1021.006836,123.881180 
	C1020.991821,147.035995 1020.996155,170.190811 1021.002258,193.345627 
	C1021.004211,200.690048 1024.263184,203.992111 1031.523560,203.996918 
	C1046.848999,204.007050 1062.174561,204.000000 1078.500000,204.000000 
M651.670532,198.856323 
	C652.175842,196.717407 652.681091,194.578491 653.294495,191.981918 
	C628.641357,191.981918 604.566162,191.981918 579.968750,191.981918 
	C580.554260,191.163498 580.749268,190.771179 581.048584,190.489822 
	C591.883118,180.303940 602.674805,170.071548 613.594849,159.978027 
	C618.281494,155.646057 623.319519,151.695938 628.050171,147.409317 
	C633.682739,142.305389 639.371277,137.231659 644.617859,131.745392 
	C647.713501,128.508408 649.230469,124.438255 647.244873,119.690887 
	C645.312744,115.071289 641.559692,114.970413 637.472717,114.976768 
	C609.144165,115.020821 580.815369,115.000000 552.486694,115.000000 
	C550.721497,115.000000 548.956360,115.000000 547.295898,115.000000 
	C547.295898,119.329407 547.295898,123.070366 547.295898,127.380463 
	C570.047668,127.380463 592.506714,127.380463 616.150452,127.380463 
	C605.911804,136.820053 596.607422,145.392365 587.310425,153.972672 
	C583.432434,157.551697 579.571350,161.149063 575.700562,164.735931 
	C567.112549,172.694077 558.338440,180.464905 550.041748,188.715897 
	C547.381592,191.361374 546.150208,195.129730 547.976685,199.352295 
	C549.866272,203.720581 553.230591,204.041077 557.203674,204.032471 
	C585.365601,203.971436 613.527710,203.971848 641.689636,204.031891 
	C645.683289,204.040421 648.863220,202.820786 651.670532,198.856323 
M1884.000000,140.623520 
	C1884.987427,150.616577 1879.334106,153.385971 1872.419434,154.861252 
	C1867.653320,155.878174 1862.618408,155.594391 1857.714355,156.016663 
	C1850.729614,156.618103 1843.706421,157.019455 1836.787720,158.080475 
	C1828.107788,159.411545 1821.861816,164.270554 1820.140259,173.134247 
	C1818.842407,179.816208 1818.385620,186.704269 1818.078491,193.524200 
	C1817.754272,200.721741 1821.317017,203.995728 1828.616821,203.997604 
	C1853.262329,204.003906 1877.910034,203.815201 1902.551758,204.120651 
	C1909.314331,204.204483 1913.263306,201.883347 1913.816040,191.871948 
	C1890.908203,191.871948 1868.022217,191.871948 1845.000000,191.871948 
	C1845.000000,189.558899 1845.064087,187.736465 1844.989746,185.919678 
	C1844.511230,174.222290 1853.060669,167.587982 1863.144165,167.810303 
	C1872.779907,168.022736 1882.520874,167.156815 1892.074707,165.784439 
	C1896.620728,165.131409 1901.796387,163.205200 1905.035278,160.121124 
	C1916.973755,148.753586 1912.449829,127.894882 1900.938354,119.968361 
	C1892.023682,113.829697 1881.622437,113.492523 1871.606812,113.236534 
	C1859.138794,112.917862 1846.614868,114.176628 1834.138428,115.078064 
	C1829.058838,115.445076 1824.040527,116.663216 1819.363159,117.433380 
	C1819.592285,120.701149 1819.978760,123.614029 1819.950439,126.522865 
	C1819.920898,129.560333 1821.536865,130.487198 1824.042725,129.929169 
	C1839.294434,126.532867 1854.781860,126.658295 1870.229370,127.131248 
	C1877.365479,127.349716 1884.228516,131.959427 1884.000000,140.623520 
M1533.439697,115.000000 
	C1526.678711,115.000000 1519.917603,115.000000 1513.309082,115.000000 
	C1513.309082,145.022186 1513.309082,174.424988 1513.309082,203.687866 
	C1522.694336,203.687866 1531.767578,203.687866 1540.687744,203.687866 
	C1540.687744,173.972336 1540.687744,144.569794 1540.687744,115.000000 
	C1538.391968,115.000000 1536.407715,115.000000 1533.439697,115.000000 
M510.000000,165.500000 
	C510.000000,178.262344 510.000000,191.024689 510.000000,203.711609 
	C519.313538,203.711609 528.052124,203.711609 536.713989,203.711609 
	C536.713989,174.021317 536.713989,144.620285 536.713989,115.288338 
	C527.686523,115.288338 518.947937,115.288338 510.000000,115.288338 
	C510.000000,131.883835 510.000000,148.191925 510.000000,165.500000 
z"/>
<path fill="#FFFFFF" opacity="1.000000" stroke="none" 
	d="
M352.889313,124.000000 
	C341.765625,124.000000 331.131836,124.000000 320.532196,124.000000 
	C320.016296,119.204964 319.824860,114.647530 318.990723,110.210938 
	C316.773376,98.416901 307.463470,95.069397 299.945862,95.033997 
	C279.116333,94.935898 258.285797,95.067856 237.456177,94.980835 
	C216.808151,94.894569 200.570450,85.942757 188.008133,69.880386 
	C186.409409,67.836235 185.624847,66.950714 183.539291,69.819130 
	C177.029877,78.772018 169.005783,86.247971 158.403732,89.993355 
	C151.945374,92.274902 145.100311,94.600700 138.373505,94.775764 
	C115.725830,95.365166 93.042885,95.413849 70.394264,94.842918 
	C57.063858,94.506889 47.239910,105.500168 47.982937,117.543472 
	C48.104282,119.510315 48.000000,121.491081 48.000000,123.731552 
	C35.686943,123.731552 23.613104,123.731552 11.538326,123.737701 
	C6.928406,93.514282 24.688431,67.925171 52.507801,59.358265 
	C58.170635,57.614407 64.401108,57.179707 70.382454,57.101528 
	C90.709038,56.835854 111.067024,56.386074 131.361267,57.238625 
	C142.866196,57.721939 150.094604,53.052570 156.093704,44.062851 
	C160.677078,37.194656 166.134293,30.912088 171.156052,24.333347 
	C177.533875,15.978156 192.992157,17.965303 200.170319,26.864050 
	C207.955505,36.515350 216.886230,45.283222 225.760590,53.984333 
	C227.764023,55.948654 231.590530,56.837467 234.593506,56.872360 
	C255.420670,57.114376 276.252808,57.119236 297.081726,56.971279 
	C326.313354,56.763638 350.105011,74.580101 356.621796,103.441437 
	C358.083374,109.914345 357.820953,116.776520 358.395172,124.000000 
	C356.265930,124.000000 354.822571,124.000000 352.889313,124.000000 
z"/>
<path fill="#FFFFFF" opacity="1.000000" stroke="none" 
	d="
M319.991577,194.471756 
	C319.998993,190.544952 319.998993,187.064224 319.998993,183.293213 
	C332.594147,183.293213 345.000031,183.293213 357.732300,183.293213 
	C359.278992,199.363068 355.424164,214.092117 345.482910,226.894943 
	C337.567230,237.089096 327.327698,244.241104 314.477600,247.054260 
	C310.704041,247.880371 306.859009,248.883469 303.039642,248.913834 
	C280.881927,249.090057 258.721191,248.886444 236.563538,249.064667 
	C229.300674,249.123077 223.616821,252.211136 218.819672,258.193787 
	C211.619400,267.173431 203.978668,275.971069 195.468704,283.679779 
	C187.453384,290.940430 176.400604,288.964874 169.311005,280.541016 
	C162.932007,272.961517 157.265366,264.778442 151.360153,256.805603 
	C147.416016,251.480484 141.961700,249.086090 135.601822,249.050781 
	C112.443771,248.922211 89.275177,249.405472 66.128853,248.868896 
	C48.314674,248.455933 33.868370,240.691010 22.769270,226.466980 
	C12.595406,213.428665 9.737343,199.581482 11.363270,183.000000 
	C17.415916,183.000000 23.526466,183.000000 29.637018,183.000000 
	C35.602795,183.000000 41.568573,183.000000 47.490574,183.000000 
	C48.019527,187.329651 48.630474,191.331146 48.974747,195.355438 
	C49.703053,203.868805 59.374504,211.342865 67.000229,211.169052 
	C88.315208,210.683197 109.655266,210.684952 130.971436,211.143951 
	C140.451553,211.348083 149.969467,212.284302 158.961395,216.342178 
	C168.699677,220.736862 176.717194,227.099396 182.775085,235.705994 
	C185.043869,238.929321 186.464478,238.503128 188.311447,236.114517 
	C193.561707,229.324600 199.710571,223.634872 207.159836,219.284821 
	C214.376648,215.070526 222.040176,212.227844 230.381866,212.058090 
	C254.788147,211.561432 279.200043,211.344345 303.609344,210.992371 
	C309.844147,210.902481 316.465515,205.093292 318.998932,197.610214 
	C319.305298,196.705292 319.654724,195.814941 319.991577,194.471756 
z"/>
<path fill="#FFFFFF" opacity="1.000000" stroke="none" 
	d="
M1318.700806,128.197174 
	C1330.825684,141.937485 1342.686279,155.431854 1355.502686,170.013779 
	C1355.502686,150.996796 1355.502686,133.321457 1355.502686,115.324783 
	C1364.869629,115.324783 1373.607666,115.324783 1383.000000,115.324783 
	C1383.000000,116.719879 1383.000000,118.306450 1383.000000,119.893028 
	C1383.000000,143.879181 1382.748047,167.869354 1383.131592,191.849365 
	C1383.273071,200.694031 1377.678101,203.881897 1371.014404,204.143478 
	C1358.191406,204.646851 1349.084595,199.103714 1341.521973,189.217148 
	C1335.363525,181.166367 1328.278076,173.826920 1321.651001,166.131378 
	C1318.245239,162.176483 1315.017700,158.066147 1311.554565,154.163651 
	C1310.271729,152.718201 1308.545410,151.666382 1306.064209,149.661697 
	C1306.064209,168.635315 1306.064209,186.053162 1306.064209,203.733978 
	C1297.008057,203.733978 1288.272217,203.733978 1279.401611,203.733978 
	C1279.280396,203.330124 1279.029785,202.884415 1279.029419,202.438492 
	C1279.006592,176.453583 1278.981323,150.468643 1279.017090,124.483795 
	C1279.025513,118.394989 1282.535767,115.014252 1288.577515,115.000984 
	C1291.242676,114.995132 1293.944458,115.286438 1296.566406,114.949890 
	C1307.315308,113.570183 1312.945557,120.600746 1318.700806,128.197174 
z"/>
<path fill="#FFFFFF" opacity="1.000000" stroke="none" 
	d="
M1617.245117,193.742615 
	C1607.913208,182.766861 1598.843262,172.037186 1589.746094,161.330765 
	C1587.305176,158.458038 1584.847656,155.593002 1582.257690,152.856995 
	C1581.356812,151.905228 1580.033447,151.353455 1578.191650,150.156876 
	C1578.191650,168.568405 1578.191650,185.965210 1578.191650,203.680023 
	C1569.120117,203.680023 1560.382324,203.680023 1551.225708,203.680023 
	C1551.157715,202.447601 1551.010864,201.020233 1551.010010,199.592773 
	C1550.996094,174.940094 1550.996094,150.287430 1551.002441,125.634750 
	C1551.004272,118.188133 1554.140503,115.002106 1561.425537,115.000053 
	C1562.758179,114.999672 1564.119873,115.181023 1565.418823,114.971672 
	C1576.914673,113.118744 1584.198120,119.056099 1590.445435,127.759537 
	C1594.155029,132.927536 1598.800293,137.423386 1603.020020,142.225647 
	C1610.790649,151.068970 1618.557739,159.915482 1627.495728,170.092484 
	C1628.622803,150.979919 1627.569824,133.241196 1628.133789,115.279472 
	C1636.963989,115.279472 1645.700195,115.279472 1654.782104,115.279472 
	C1654.852417,116.647827 1654.989746,118.084778 1654.990601,119.521805 
	C1655.003784,143.841324 1655.006348,168.160858 1654.996460,192.480392 
	C1654.993164,200.575729 1651.512817,203.575256 1643.385742,204.101791 
	C1633.020752,204.773285 1624.597656,201.281921 1617.245117,193.742615 
z"/>
<path fill="#FFFFFF" opacity="1.000000" stroke="none" 
	d="
M491.172913,161.676315 
	C496.788544,166.271820 500.026215,172.103027 499.803528,178.755157 
	C499.526367,187.034134 495.288483,193.713272 487.924286,197.991074 
	C481.085846,201.963455 473.561768,203.848312 465.751831,203.935440 
	C447.590454,204.138046 429.425293,204.008209 411.261658,203.995605 
	C404.819458,203.991135 401.073242,200.625839 401.043060,194.217300 
	C400.933960,171.054993 400.931244,147.891556 401.045044,124.729301 
	C401.076416,118.345779 404.844849,115.007637 411.315063,115.003937 
	C430.478546,114.992950 449.642181,114.955795 468.805450,115.016022 
	C480.966827,115.054245 494.651581,123.709854 497.357880,135.621582 
	C498.703644,141.544815 496.787445,145.996643 493.909821,150.559662 
	C491.964294,153.644760 489.939270,156.679718 487.949768,159.737091 
	C487.238495,159.227722 486.527252,158.718353 485.816010,158.208984 
	C487.519775,159.274155 489.223541,160.339310 491.172913,161.676315 
M441.506348,191.000000 
	C443.839233,191.000000 446.173218,190.954071 448.504822,191.008957 
	C454.558105,191.151443 460.589783,191.237717 466.064636,188.001190 
	C470.192780,185.560776 473.616455,179.311844 472.987244,175.316620 
	C472.230957,170.514816 468.904877,166.455322 463.186951,166.162659 
	C451.561554,165.567612 439.884369,165.984726 428.288940,165.984726 
	C428.288940,173.980942 428.288940,182.386353 428.288940,191.000000 
	C432.554077,191.000000 436.532074,191.000000 441.506348,191.000000 
M434.576721,152.000000 
	C442.380219,152.000000 450.183807,152.022308 457.987183,151.993210 
	C464.683990,151.968246 469.296570,149.029251 469.993866,144.417603 
	C471.175354,136.603790 468.278290,129.956146 461.351227,129.281891 
	C450.359589,128.212006 439.187469,128.996521 428.327179,128.996521 
	C428.327179,136.430801 428.327179,144.151779 428.327179,152.000000 
	C430.302429,152.000000 431.951080,152.000000 434.576721,152.000000 
z"/>
<path fill="#FFFFFF" opacity="1.000000" stroke="none" 
	d="
M1394.000000,152.272842 
	C1395.365723,143.718063 1396.939331,135.819626 1401.632080,128.705170 
	C1407.058472,120.478195 1415.202271,117.286659 1424.082764,116.164482 
	C1434.815430,114.808235 1445.740479,113.774300 1456.510376,114.244812 
	C1467.848022,114.740143 1479.529663,115.867729 1489.183105,123.064713 
	C1497.268799,129.092926 1502.002930,137.089584 1502.029419,147.752380 
	C1493.076782,147.752380 1484.309448,147.752380 1475.533936,147.752380 
	C1472.786133,134.818893 1469.564575,128.972839 1450.489990,128.043976 
	C1441.990112,127.630066 1433.472290,128.678848 1427.927002,135.883453 
	C1424.829590,139.907578 1422.146606,145.166046 1421.656006,150.104675 
	C1420.338501,163.364273 1418.799316,177.055618 1429.503906,188.005920 
	C1438.663086,197.375366 1460.763794,197.368286 1468.160767,187.048523 
	C1471.757324,182.030762 1473.519897,175.698471 1476.515991,169.068726 
	C1465.398193,169.068726 1455.958740,169.068726 1446.262695,169.068726 
	C1446.262695,164.670502 1446.262695,160.599609 1446.262695,157.001877 
	C1462.591919,157.001877 1478.918213,156.765991 1495.230103,157.148636 
	C1499.992310,157.260361 1502.904663,161.529755 1502.993774,166.262604 
	C1503.144775,174.285553 1502.282349,182.082672 1498.880493,189.538727 
	C1495.006592,198.029526 1488.042236,202.659760 1479.404541,203.816116 
	C1466.763916,205.508362 1453.972168,206.575729 1441.225830,206.790039 
	C1433.180176,206.925339 1425.093872,205.069061 1417.037231,204.018478 
	C1404.227051,202.348053 1398.454712,193.198624 1396.256348,182.118393 
	C1394.358643,172.554077 1394.666992,162.552094 1394.000000,152.272842 
z"/>
<path fill="#FFFFFF" opacity="1.000000" stroke="none" 
	d="
M694.993835,121.072952 
	C698.141602,116.664543 702.117615,114.807068 707.331848,114.935379 
	C716.655029,115.164787 725.989441,115.106712 735.316040,114.962784 
	C741.619873,114.865501 746.252502,117.818924 748.536194,123.237572 
	C753.442993,134.880844 757.681030,146.805283 762.229736,158.600418 
	C765.111389,166.072586 768.147461,173.486191 770.952515,180.986557 
	C773.746338,188.456863 776.338196,196.002701 779.191284,203.999420 
	C770.674561,203.999420 762.555664,204.083145 754.442932,203.898453 
	C753.372253,203.874100 751.780334,202.704391 751.366455,201.684891 
	C748.116516,193.679565 744.946594,185.633591 742.090027,177.481659 
	C741.193542,174.923508 740.172241,173.894257 737.380554,173.935852 
	C726.721497,174.094696 716.054016,174.174438 705.399902,173.894684 
	C702.166565,173.809799 700.969788,175.400772 700.049377,177.787033 
	C696.996643,185.702026 694.122375,193.689011 690.879150,201.524002 
	C690.395813,202.691620 688.317810,203.851364 686.945251,203.890854 
	C679.124817,204.115814 671.294556,203.999954 663.037537,203.999954 
	C668.008362,190.717361 672.876099,177.678604 677.767700,164.648849 
	C682.493225,152.061462 687.209595,139.470352 692.019104,126.915001 
	C692.752930,124.999107 693.967285,123.267273 694.993835,121.072952 
M728.962585,141.671753 
	C726.982422,136.444626 725.026306,131.208145 722.994812,126.001030 
	C722.706909,125.263069 722.052795,124.667976 721.568176,124.006744 
	C720.938538,124.587631 720.020325,125.050514 719.726562,125.768768 
	C717.976257,130.049316 716.307312,134.366013 714.729553,138.713577 
	C711.981934,146.284805 709.320435,153.887283 706.554993,161.667542 
	C716.855530,161.667542 726.352905,161.667542 735.965881,161.667542 
	C733.563110,155.051392 731.281433,148.768860 728.962585,141.671753 
z"/>
<path fill="#FFFFFF" opacity="1.000000" stroke="none" 
	d="
M833.999329,128.000000 
	C819.192688,128.000000 804.885803,128.000000 790.620300,128.000000 
	C788.836548,118.198837 791.425659,115.000160 800.924377,115.000053 
	C820.748169,114.999840 840.577454,114.733650 860.392822,115.141243 
	C867.544128,115.288330 874.809387,116.162880 881.154419,120.541115 
	C888.429199,125.560837 892.939087,138.721451 889.771057,148.769943 
	C886.263550,159.895264 877.312500,162.968033 867.416809,164.990112 
	C866.671692,165.142365 865.897217,165.150528 864.547974,165.283829 
	C874.628174,178.304947 884.359436,190.875381 894.519775,203.999969 
	C884.747925,203.999969 876.083618,204.099228 867.426025,203.900650 
	C866.010864,203.868195 864.191406,202.865067 863.294739,201.729492 
	C855.355286,191.674515 847.636536,181.445618 839.729187,171.364914 
	C837.058716,167.960510 834.101624,165.122116 828.965332,165.891129 
	C825.240234,166.448837 821.364380,166.000000 817.165161,166.000000 
	C817.165161,178.627518 817.165161,191.034042 817.165161,203.717926 
	C808.040588,203.717926 799.303894,203.717926 790.282166,203.717926 
	C790.282166,187.041153 790.282166,170.307617 790.282166,153.223511 
	C791.633911,153.151978 793.069519,153.010971 794.505310,153.009827 
	C813.163025,152.994980 831.820679,153.010101 850.478394,152.995941 
	C860.535400,152.988312 866.410828,144.267273 862.428406,135.003311 
	C860.135193,129.668945 854.971497,128.553955 849.982971,128.102798 
	C844.860474,127.639549 839.663513,128.000015 833.999329,128.000000 
z"/>
<path fill="#FFFFFF" opacity="1.000000" stroke="none" 
	d="
M919.006348,153.000000 
	C935.165344,153.000000 950.825989,152.971222 966.486450,153.016846 
	C971.425232,153.031235 975.323792,151.444122 977.700378,146.824570 
	C980.293640,141.783615 979.772644,136.256073 976.468811,132.645172 
	C973.918518,129.857803 968.785522,128.300903 964.750427,128.199295 
	C946.602295,127.742264 928.436218,128.000000 910.276611,128.000000 
	C908.638428,128.000000 907.000183,128.000000 905.401733,128.000000 
	C904.431274,118.695702 907.748535,115.000244 916.727173,115.000099 
	C936.719421,114.999786 956.718079,114.703484 976.700806,115.139183 
	C985.247986,115.325539 993.972595,116.556747 1000.187927,123.712570 
	C1009.291443,134.193634 1009.656189,157.124207 990.842224,162.970139 
	C987.657166,163.959778 984.406189,164.737457 980.432190,165.817917 
	C990.225403,178.454910 999.904663,190.944855 1010.020203,203.997757 
	C1000.360962,203.997757 991.142883,204.100327 981.932434,203.881897 
	C980.622498,203.850845 979.019653,202.518875 978.110535,201.353577 
	C969.435486,190.233078 960.929443,178.980423 952.213745,167.892349 
	C951.374207,166.824249 949.475952,166.178711 948.020447,166.083908 
	C944.204834,165.835358 940.350525,166.185944 936.533813,165.945404 
	C933.028625,165.724503 931.875366,167.007645 931.933411,170.519547 
	C932.114807,181.489151 932.000000,192.463623 932.000000,203.717422 
	C923.041077,203.717422 914.303772,203.717422 905.281799,203.717422 
	C905.281799,187.039291 905.281799,170.304672 905.281799,153.000000 
	C909.638855,153.000000 914.073425,153.000000 919.006348,153.000000 
z"/>
<path fill="#FFFFFF" opacity="1.000000" stroke="none" 
	d="
M1693.000000,168.137207 
	C1693.000000,176.251862 1693.000000,183.881088 1693.000000,191.878571 
	C1716.037476,191.878571 1738.780273,191.878571 1761.470337,191.878571 
	C1762.515869,199.658707 1758.773438,203.996048 1751.354126,203.997787 
	C1726.371094,204.003586 1701.388062,203.975876 1676.405029,204.013641 
	C1668.118652,204.026169 1665.144287,199.642365 1665.077881,192.661743 
	C1664.867554,170.512115 1664.609253,148.348740 1665.204834,126.213150 
	C1665.422974,118.104713 1666.958252,114.906105 1676.509766,114.951675 
	C1704.811035,115.086685 1733.113281,115.000000 1761.383911,115.000000 
	C1762.680298,123.178886 1757.174438,126.956589 1750.333618,126.980171 
	C1733.012329,127.039894 1715.690552,127.000000 1698.369019,127.000000 
	C1696.737671,127.000000 1695.106323,127.000000 1693.239502,127.000000 
	C1693.239502,135.380188 1693.239502,143.448151 1693.239502,151.889267 
	C1713.718018,151.889267 1734.130127,151.889267 1754.491577,151.889267 
	C1755.482178,159.612930 1751.761597,163.961700 1744.323242,163.984909 
	C1728.500732,164.034271 1712.677490,164.071350 1696.856079,163.935181 
	C1693.959961,163.910248 1692.340576,164.381439 1693.000000,168.137207 
z"/>
<path fill="#FFFFFF" opacity="1.000000" stroke="none" 
	d="
M1229.000000,115.000000 
	C1242.479370,115.000000 1255.458740,115.000000 1268.405762,115.000000 
	C1269.641235,123.118874 1264.263062,126.956688 1257.307495,126.980484 
	C1239.984863,127.039764 1222.661987,126.999992 1205.339111,127.000000 
	C1203.710327,127.000000 1202.081665,127.000000 1200.228760,127.000000 
	C1200.228760,135.402252 1200.228760,143.470734 1200.228760,151.908813 
	C1220.744263,151.908813 1241.159668,151.908813 1261.528442,151.908813 
	C1262.444336,159.680145 1258.746094,163.962936 1251.285400,163.985855 
	C1235.961426,164.032959 1220.637329,164.000000 1205.313232,164.000000 
	C1203.686768,164.000000 1202.060425,164.000000 1200.219604,164.000000 
	C1200.219604,173.420883 1200.219604,182.488846 1200.219604,191.921707 
	C1223.095337,191.921707 1245.843994,191.921707 1268.548706,191.921707 
	C1269.432251,199.788162 1265.735352,203.996780 1258.275269,203.998199 
	C1233.290405,204.002960 1208.305542,203.990997 1183.320679,204.005081 
	C1175.032837,204.009750 1172.186646,199.691116 1172.104980,193.075043 
	C1171.829468,170.758636 1171.729126,148.431702 1172.143921,126.119606 
	C1172.293091,118.091347 1175.779907,114.668449 1183.530640,114.880394 
	C1198.510254,115.290039 1213.509155,115.000000 1229.000000,115.000000 
z"/>
<path fill="#FFFFFF" opacity="1.000000" stroke="none" 
	d="
M1078.000000,204.000000 
	C1062.174561,204.000000 1046.848999,204.007050 1031.523560,203.996918 
	C1024.263184,203.992111 1021.004211,200.690048 1021.002258,193.345627 
	C1020.996155,170.190811 1020.991821,147.035995 1021.006836,123.881180 
	C1021.009949,119.163452 1024.354004,115.048592 1028.564941,115.038277 
	C1057.867554,114.966492 1087.170410,115.000366 1116.438721,115.000366 
	C1117.517456,122.198410 1113.457275,126.968994 1106.303223,126.986122 
	C1088.645752,127.028412 1070.987915,127.000000 1053.330322,127.000000 
	C1051.702271,127.000000 1050.074097,127.000000 1048.225464,127.000000 
	C1048.225464,135.409607 1048.225464,143.478561 1048.225464,151.815552 
	C1068.939575,151.815552 1089.540649,151.815552 1110.170654,151.815552 
	C1109.005249,162.240250 1107.052856,164.000000 1096.918091,164.000000 
	C1080.787842,164.000000 1064.657593,164.000000 1048.264404,164.000000 
	C1048.264404,173.329300 1048.264404,182.398636 1048.264404,191.855286 
	C1070.998657,191.855286 1093.739624,191.855286 1116.419922,191.855286 
	C1117.631104,199.893723 1114.161743,203.987640 1106.485840,203.997238 
	C1097.157227,204.008881 1087.828613,204.000000 1078.000000,204.000000 
z"/>
<path fill="#FFFFFF" opacity="1.000000" stroke="none" 
	d="
M651.366577,199.129547 
	C648.863220,202.820786 645.683289,204.040421 641.689636,204.031891 
	C613.527710,203.971848 585.365601,203.971436 557.203674,204.032471 
	C553.230591,204.041077 549.866272,203.720581 547.976685,199.352295 
	C546.150208,195.129730 547.381592,191.361374 550.041748,188.715897 
	C558.338440,180.464905 567.112549,172.694077 575.700562,164.735931 
	C579.571350,161.149063 583.432434,157.551697 587.310425,153.972672 
	C596.607422,145.392365 605.911804,136.820053 616.150452,127.380463 
	C592.506714,127.380463 570.047668,127.380463 547.295898,127.380463 
	C547.295898,123.070366 547.295898,119.329407 547.295898,115.000000 
	C548.956360,115.000000 550.721497,115.000000 552.486694,115.000000 
	C580.815369,115.000000 609.144165,115.020821 637.472717,114.976768 
	C641.559692,114.970413 645.312744,115.071289 647.244873,119.690887 
	C649.230469,124.438255 647.713501,128.508408 644.617859,131.745392 
	C639.371277,137.231659 633.682739,142.305389 628.050171,147.409317 
	C623.319519,151.695938 618.281494,155.646057 613.594849,159.978027 
	C602.674805,170.071548 591.883118,180.303940 581.048584,190.489822 
	C580.749268,190.771179 580.554260,191.163498 579.968750,191.981918 
	C604.566162,191.981918 628.641357,191.981918 653.294495,191.981918 
	C652.681091,194.578491 652.175842,196.717407 651.366577,199.129547 
z"/>
<path fill="#FFFFFF" opacity="1.000000" stroke="none" 
	d="
M1884.000000,140.181122 
	C1884.228516,131.959427 1877.365479,127.349716 1870.229370,127.131248 
	C1854.781860,126.658295 1839.294434,126.532867 1824.042725,129.929169 
	C1821.536865,130.487198 1819.920898,129.560333 1819.950439,126.522865 
	C1819.978760,123.614029 1819.592285,120.701149 1819.363159,117.433380 
	C1824.040527,116.663216 1829.058838,115.445076 1834.138428,115.078064 
	C1846.614868,114.176628 1859.138794,112.917862 1871.606812,113.236534 
	C1881.622437,113.492523 1892.023682,113.829697 1900.938354,119.968361 
	C1912.449829,127.894882 1916.973755,148.753586 1905.035278,160.121124 
	C1901.796387,163.205200 1896.620728,165.131409 1892.074707,165.784439 
	C1882.520874,167.156815 1872.779907,168.022736 1863.144165,167.810303 
	C1853.060669,167.587982 1844.511230,174.222290 1844.989746,185.919678 
	C1845.064087,187.736465 1845.000000,189.558899 1845.000000,191.871948 
	C1868.022217,191.871948 1890.908203,191.871948 1913.816040,191.871948 
	C1913.263306,201.883347 1909.314331,204.204483 1902.551758,204.120651 
	C1877.910034,203.815201 1853.262329,204.003906 1828.616821,203.997604 
	C1821.317017,203.995728 1817.754272,200.721741 1818.078491,193.524200 
	C1818.385620,186.704269 1818.842407,179.816208 1820.140259,173.134247 
	C1821.861816,164.270554 1828.107788,159.411545 1836.787720,158.080475 
	C1843.706421,157.019455 1850.729614,156.618103 1857.714355,156.016663 
	C1862.618408,155.594391 1867.653320,155.878174 1872.419434,154.861252 
	C1879.334106,153.385971 1884.987427,150.616577 1884.000000,140.181122 
z"/>
<path fill="#FFFFFF" opacity="1.000000" stroke="none" 
	d="
M1533.931519,115.000000 
	C1536.407715,115.000000 1538.391968,115.000000 1540.687744,115.000000 
	C1540.687744,144.569794 1540.687744,173.972336 1540.687744,203.687866 
	C1531.767578,203.687866 1522.694336,203.687866 1513.309082,203.687866 
	C1513.309082,174.424988 1513.309082,145.022186 1513.309082,115.000000 
	C1519.917603,115.000000 1526.678711,115.000000 1533.931519,115.000000 
z"/>
<path fill="#FFFFFF" opacity="1.000000" stroke="none" 
	d="
M510.000000,165.000000 
	C510.000000,148.191925 510.000000,131.883835 510.000000,115.288338 
	C518.947937,115.288338 527.686523,115.288338 536.713989,115.288338 
	C536.713989,144.620285 536.713989,174.021317 536.713989,203.711609 
	C528.052124,203.711609 519.313538,203.711609 510.000000,203.711609 
	C510.000000,191.024689 510.000000,178.262344 510.000000,165.000000 
z"/>
<path fill="#000000" opacity="0.000000" stroke="none" 
	d="
M441.008240,191.000000 
	C436.532074,191.000000 432.554077,191.000000 428.288940,191.000000 
	C428.288940,182.386353 428.288940,173.980942 428.288940,165.984726 
	C439.884369,165.984726 451.561554,165.567612 463.186951,166.162659 
	C468.904877,166.455322 472.230957,170.514816 472.987244,175.316620 
	C473.616455,179.311844 470.192780,185.560776 466.064636,188.001190 
	C460.589783,191.237717 454.558105,191.151443 448.504822,191.008957 
	C446.173218,190.954071 443.839233,191.000000 441.008240,191.000000 
z"/>
<path fill="#000000" opacity="0.000000" stroke="none" 
	d="
M434.088226,152.000000 
	C431.951080,152.000000 430.302429,152.000000 428.327179,152.000000 
	C428.327179,144.151779 428.327179,136.430801 428.327179,128.996521 
	C439.187469,128.996521 450.359589,128.212006 461.351227,129.281891 
	C468.278290,129.956146 471.175354,136.603790 469.993866,144.417603 
	C469.296570,149.029251 464.683990,151.968246 457.987183,151.993210 
	C450.183807,152.022308 442.380219,152.000000 434.088226,152.000000 
z"/>
<path fill="#000000" opacity="0.000000" stroke="none" 
	d="
M728.981201,142.079041 
	C731.281433,148.768860 733.563110,155.051392 735.965881,161.667542 
	C726.352905,161.667542 716.855530,161.667542 706.554993,161.667542 
	C709.320435,153.887283 711.981934,146.284805 714.729553,138.713577 
	C716.307312,134.366013 717.976257,130.049316 719.726562,125.768768 
	C720.020325,125.050514 720.938538,124.587631 721.568176,124.006752 
	C722.052795,124.667976 722.706909,125.263069 722.994812,126.001030 
	C725.026306,131.208145 726.982422,136.444626 728.981201,142.079041 
z"/>
</svg>