<svg version="1.1" id="Layer_1" xmlns="http://www.w3.org/2000/svg" xmlns:xlink="http://www.w3.org/1999/xlink" x="0px" y="0px"
	 width="100%" viewBox="0 0 1920 300" enable-background="new 0 0 1920 300" xml:space="preserve">
<path fill="#010101" opacity="0.000000" stroke="none" 
	d="
M1433.000000,301.000000 
	C955.386963,301.000000 478.273956,301.000000 1.080461,301.000000 
	C1.080461,201.064941 1.080461,101.129791 1.080461,1.097323 
	C641.000000,1.097323 1281.000000,1.097323 1920.972168,1.097323 
	C1920.972168,101.059647 1920.972168,201.029831 1920.972168,301.000000 
	C1758.462769,301.000000 1595.981445,301.000000 1433.000000,301.000000 
M63.371536,182.110626 
	C52.955421,182.110626 42.539310,182.110626 32.427780,182.110626 
	C32.427780,188.291702 31.675388,193.896484 32.552814,199.233292 
	C37.379772,228.592453 59.352253,247.027695 89.137421,247.104446 
	C109.625206,247.157242 130.113800,247.202316 150.600861,247.070694 
	C158.374191,247.020767 164.400589,249.779587 168.916504,256.209381 
	C173.506470,262.744690 178.372910,269.087616 183.180908,275.467590 
	C191.867645,286.994446 205.064087,287.486053 214.585724,276.696503 
	C220.866608,269.579254 227.332153,262.617401 233.414291,255.334808 
	C238.275986,249.513550 244.221558,247.000122 251.739960,247.060745 
	C271.560303,247.220581 291.383148,247.186935 311.204346,247.090149 
	C330.398468,246.996429 345.514618,238.787048 356.686890,223.363937 
	C365.596436,211.064392 367.731598,197.086014 366.519287,182.315948 
	C354.097107,182.315948 342.146271,182.315948 329.705353,182.315948 
	C329.705353,184.122498 329.709869,185.742996 329.704620,187.363449 
	C329.653717,203.119720 322.882996,209.938263 307.268585,209.945465 
	C287.780090,209.954437 268.290833,209.848587 248.803391,209.993713 
	C232.671082,210.113861 219.054657,216.221878 208.025131,228.011871 
	C205.531479,230.677444 203.137680,233.436401 200.414383,236.467987 
	C186.520248,215.357788 166.443573,208.809753 142.475449,209.799835 
	C124.516762,210.541702 106.502190,210.027161 88.513527,209.912735 
	C76.726616,209.837769 69.285927,202.286530 69.050568,190.491043 
	C68.998100,187.861420 69.042877,185.229858 69.042877,182.110641 
	C67.234901,182.110641 65.787613,182.110641 63.371536,182.110626 
M77.602493,61.974285 
	C47.325459,67.813370 27.550587,95.824234 32.515278,125.864151 
	C44.584568,125.864151 56.655430,125.864151 69.039780,125.864151 
	C69.039780,124.150360 69.036934,122.683746 69.040215,121.217140 
	C69.076706,104.914200 75.848656,98.116264 92.056374,98.115234 
	C111.714844,98.113991 131.373383,98.140099 151.031723,98.090034 
	C154.350037,98.081581 157.709045,98.019920 160.978455,97.519890 
	C177.906036,94.930893 190.845123,86.035461 200.527176,71.710052 
	C201.932770,73.267189 203.206680,74.569427 204.358948,75.971657 
	C217.181015,91.575310 233.630310,98.709274 253.849792,98.210449 
	C272.164337,97.758621 290.498993,98.069077 308.824463,98.130661 
	C321.757874,98.174118 329.305481,105.585579 329.692474,118.469574 
	C329.765717,120.907784 329.702972,123.350067 329.702972,125.845413 
	C342.276123,125.845413 354.348999,125.845413 366.757416,125.845413 
	C366.757416,122.458664 366.919739,119.318481 366.715057,116.202393 
	C366.475494,112.555222 366.234100,108.858467 365.445007,105.305008 
	C359.550903,78.762360 337.918945,61.206074 310.701538,60.984985 
	C290.711151,60.822598 270.718445,60.927204 250.726822,60.959248 
	C244.006409,60.970020 238.508331,58.607002 234.068573,53.439896 
	C227.339096,45.607971 220.504807,37.860142 213.526428,30.249542 
	C204.961060,20.908175 191.771408,21.589312 184.082947,31.646456 
	C179.128876,38.126778 174.055466,44.533028 169.440414,51.250614 
	C164.627106,58.256748 158.125412,61.036339 149.852844,60.986206 
	C129.861923,60.865059 109.869560,60.901909 89.878258,60.987595 
	C86.070885,61.003914 82.265732,61.537495 77.602493,61.974285 
M1618.741089,204.098175 
	C1634.081787,204.280441 1636.097046,202.305801 1636.097412,187.085938 
	C1636.098022,165.421051 1636.097534,143.756149 1636.097534,122.091255 
	C1636.097534,120.329163 1636.097534,118.567070 1636.097534,116.997658 
	C1626.631226,116.997658 1617.880737,116.997658 1608.631836,116.997658 
	C1608.631836,134.331909 1608.631836,151.352341 1608.631836,169.471786 
	C1596.074097,155.027679 1583.764526,141.878189 1572.670044,127.773010 
	C1564.523926,117.416130 1554.440796,115.400429 1542.550049,116.851219 
	C1538.378784,117.360146 1535.841064,119.692604 1535.026367,123.700951 
	C1534.532837,126.128860 1534.336548,128.655365 1534.331055,131.138306 
	C1534.280396,153.969666 1534.296143,176.801178 1534.310181,199.632645 
	C1534.311157,201.061279 1534.459351,202.489822 1534.530029,203.757294 
	C1543.901733,203.757294 1552.799561,203.757294 1562.039062,203.757294 
	C1562.039062,186.476654 1562.039062,169.572342 1562.039062,151.626175 
	C1563.742554,153.583389 1564.788330,154.769577 1565.817505,155.970123 
	C1576.227173,168.115540 1586.613770,180.280991 1597.050903,192.402908 
	C1602.552368,198.792435 1609.173218,203.267059 1618.741089,204.098175 
M1373.751831,124.585007 
	C1373.751831,122.128159 1373.751831,119.671318 1373.751831,116.990211 
	C1364.346436,116.990211 1355.468750,116.990211 1346.019775,116.990211 
	C1346.019775,134.291641 1346.019775,151.289978 1346.019775,169.344925 
	C1333.582275,155.037827 1321.676636,141.826828 1310.353027,128.134384 
	C1303.585205,119.950890 1295.943359,115.616837 1284.947754,116.507957 
	C1274.708252,117.337807 1271.976074,119.325478 1271.956665,129.699677 
	C1271.912231,153.514893 1271.938599,177.330276 1271.954468,201.145569 
	C1271.955200,202.085846 1272.144653,203.025970 1272.241211,203.920990 
	C1281.307983,203.920990 1290.071167,203.920990 1299.337646,203.920990 
	C1299.337646,186.704315 1299.337646,169.695755 1299.337646,151.656799 
	C1301.175049,153.649170 1302.301025,154.797867 1303.346924,156.015457 
	C1313.870850,168.268372 1324.366455,180.545593 1334.903442,192.787338 
	C1339.346924,197.949814 1344.629883,202.243729 1351.424805,203.332809 
	C1370.672974,206.417847 1374.200928,202.087738 1373.860474,186.514313 
	C1373.416504,166.206055 1373.751831,145.880768 1373.751831,124.585007 
M444.515442,204.139160 
	C457.332489,204.157745 470.189362,204.796280 482.952545,203.976517 
	C491.429474,203.432053 500.303894,202.076614 508.064484,198.840057 
	C524.082947,192.159576 525.842651,171.995926 512.044434,161.572861 
	C511.021149,160.799927 509.960876,160.076050 508.612701,159.110931 
	C509.859558,158.003494 510.818726,157.154465 511.774811,156.301987 
	C522.330078,146.890381 522.080566,134.124542 511.382233,124.850815 
	C505.418823,119.681526 498.493103,117.226257 490.814514,117.101471 
	C472.842896,116.809410 454.866730,116.703194 436.892487,116.711723 
	C428.038208,116.715927 425.116119,119.900917 425.098206,128.994370 
	C425.060852,147.970367 425.085846,166.946487 425.085571,185.922546 
	C425.085327,203.138702 426.097595,204.138565 444.515442,204.139160 
M1386.000366,185.387299 
	C1389.394287,196.147964 1396.115967,203.192856 1407.712891,204.715622 
	C1426.630127,207.199615 1445.571411,207.784119 1464.393066,204.176331 
	C1479.952026,201.193954 1486.127563,194.612167 1488.725098,179.222794 
	C1489.194824,176.440063 1489.329468,173.594559 1489.514526,170.771194 
	C1490.143433,161.185837 1486.561890,157.165863 1476.924194,157.013657 
	C1467.100342,156.858505 1457.272461,156.963120 1447.446289,156.956421 
	C1442.853882,156.953278 1438.261475,156.955887 1433.608032,156.955887 
	C1433.608032,161.556168 1433.608032,165.469482 1433.608032,169.964905 
	C1442.922485,169.964905 1451.954102,169.964905 1460.990601,169.964905 
	C1460.431274,183.395325 1453.066772,191.994888 1441.171143,193.668716 
	C1427.284424,195.622711 1415.353638,189.509140 1412.426514,177.192429 
	C1410.514404,169.146317 1410.252075,160.354874 1411.098145,152.086319 
	C1412.492798,138.458740 1420.949097,131.453293 1434.416260,130.784515 
	C1451.220093,129.950043 1457.898071,134.453018 1461.769775,149.203583 
	C1470.669434,149.203583 1479.556641,149.203583 1488.441650,149.203583 
	C1488.041626,133.900879 1479.251221,123.027611 1463.646851,119.200897 
	C1445.751709,114.812378 1427.702393,115.100754 1409.650024,118.623238 
	C1396.154663,121.256516 1388.363647,129.789856 1385.216431,142.650406 
	C1381.798584,156.616440 1381.928589,170.675613 1386.000366,185.387299 
M946.475586,130.087448 
	C954.611694,130.357056 962.760864,130.430237 970.878906,130.970947 
	C975.642273,131.288254 980.095642,132.736740 981.935181,137.993973 
	C984.893250,146.447891 980.053467,153.638977 970.436401,153.983536 
	C959.799927,154.364624 949.135010,153.924393 938.482361,153.884018 
	C929.557251,153.850189 920.631836,153.877075 911.534668,153.877075 
	C911.534668,170.849228 911.534668,187.266861 911.534668,203.888947 
	C920.675415,203.888947 929.575623,203.888947 939.046021,203.888947 
	C939.046021,191.763245 939.046021,179.875946 939.046021,167.853882 
	C943.439697,167.853882 947.285950,168.112625 951.080078,167.778900 
	C954.659851,167.464050 956.848999,168.818024 958.961609,171.621063 
	C966.378662,181.461853 974.031555,191.125595 981.656555,200.807983 
	C982.638977,202.055450 983.958740,203.933411 985.164795,203.966522 
	C994.682312,204.227722 1004.210205,204.111633 1014.527771,204.111633 
	C1004.560547,191.243240 995.257263,179.231964 985.500610,166.635437 
	C987.054382,166.364883 987.660950,166.253647 988.269653,166.154739 
	C988.927124,166.047897 989.602295,166.012543 990.242554,165.843216 
	C998.957703,163.538361 1006.442017,159.935745 1009.087952,150.138992 
	C1013.418762,134.103790 1004.882019,119.363693 988.407715,118.277573 
	C965.680908,116.779228 942.825195,117.037895 920.023865,116.994041 
	C913.578857,116.981651 911.064026,121.502632 911.680664,130.087448 
	C922.916016,130.087448 934.199585,130.087448 946.475586,130.087448 
M770.938965,148.495667 
	C768.353394,141.655670 765.734070,134.828171 763.191406,127.972275 
	C760.369263,120.362915 755.043701,116.536598 746.835022,116.656593 
	C739.171143,116.768623 731.504211,116.648384 723.838928,116.686295 
	C713.522034,116.737320 709.500732,119.446342 705.825012,129.150726 
	C698.760742,147.801926 691.807373,166.495132 684.806091,185.170212 
	C682.491516,191.344055 680.170837,197.515625 677.684998,204.135803 
	C686.465393,204.135803 694.622986,204.270844 702.766357,203.990479 
	C703.990356,203.948334 705.681030,202.188232 706.247070,200.841019 
	C709.400574,193.335571 712.347778,185.740005 715.199036,178.113052 
	C716.073242,175.774658 717.239075,174.822998 719.870972,174.870743 
	C729.533020,175.046036 739.204163,175.098007 748.863098,174.852585 
	C752.133667,174.769485 753.460571,175.949066 754.528015,178.885178 
	C757.586975,187.299286 760.999329,195.584946 764.222900,203.794189 
	C773.352356,203.794189 782.221558,203.794189 791.649170,203.794189 
	C784.696655,185.287735 777.926270,167.266129 770.938965,148.495667 
M840.209473,130.085510 
	C846.677673,130.361954 853.163208,130.434311 859.608582,130.980530 
	C864.611267,131.404480 869.041016,133.122528 870.689575,138.672058 
	C873.182251,147.063095 867.939453,153.761063 858.195496,154.076416 
	C849.876343,154.345673 841.542053,154.153076 833.214478,154.156570 
	C822.282410,154.161148 811.350342,154.157700 800.192871,154.157700 
	C800.192871,170.719238 800.192871,187.273788 800.192871,203.804993 
	C809.335571,203.804993 818.222107,203.804993 827.492310,203.804993 
	C827.492310,191.712631 827.492310,179.950363 827.492310,167.849747 
	C831.858582,167.849747 835.850586,168.060226 839.808777,167.784943 
	C843.138916,167.553360 845.237183,168.692322 847.266541,171.385651 
	C854.879578,181.489426 862.742065,191.406494 870.607788,201.316742 
	C871.544678,202.497208 873.056885,203.977463 874.335144,204.009415 
	C883.559937,204.239914 892.793274,204.132980 903.064331,204.132980 
	C897.715576,197.245728 893.060242,191.254730 888.408630,185.260803 
	C883.696716,179.189178 878.988464,173.114685 874.095947,166.805862 
	C883.137695,164.713699 891.272400,163.074234 895.661987,154.942551 
	C902.382141,142.493591 898.185547,120.387245 877.637878,118.099258 
	C873.835449,117.675858 870.027588,117.036064 866.216919,116.995186 
	C847.898682,116.798584 829.578186,116.667938 811.259277,116.732254 
	C802.377625,116.763435 799.315979,120.651787 800.424133,130.084763 
	C813.338928,130.084763 826.298523,130.084763 840.209473,130.085510 
M1228.500488,116.662788 
	C1212.511963,116.668564 1196.522461,116.576195 1180.535156,116.721451 
	C1172.519775,116.794273 1169.157837,120.129807 1169.122681,127.958946 
	C1169.025391,149.609604 1169.028809,171.261261 1169.122192,192.911972 
	C1169.156128,200.759384 1172.594971,204.088760 1180.537598,204.110092 
	C1204.520142,204.174545 1228.503052,204.176773 1252.485596,204.110001 
	C1260.306152,204.088226 1263.547729,200.270523 1263.105225,191.453613 
	C1241.104492,191.453613 1219.066406,191.453613 1196.974487,191.453613 
	C1196.974487,182.476013 1196.974487,174.073837 1196.974487,165.357330 
	C1213.438232,165.357330 1229.571411,165.440277 1245.703003,165.322418 
	C1253.798462,165.263275 1257.213379,161.195419 1256.581787,152.354614 
	C1236.742676,152.354614 1216.859009,152.354614 1197.061890,152.354614 
	C1197.061890,144.436996 1197.061890,137.058853 1197.061890,129.528336 
	C1199.476562,129.528336 1201.471924,129.528473 1203.467163,129.528320 
	C1219.622192,129.527008 1235.778076,129.620148 1251.932007,129.485977 
	C1260.506104,129.414780 1264.125122,125.100433 1262.858276,116.662872 
	C1251.773315,116.662872 1240.636963,116.662872 1228.500488,116.662788 
M1082.499756,129.520447 
	C1090.494873,129.511139 1098.494751,129.667831 1106.483887,129.445282 
	C1114.290161,129.227829 1117.550293,125.098320 1116.725342,116.842476 
	C1088.463989,116.842476 1060.180054,116.727623 1031.898682,116.937027 
	C1026.071777,116.980164 1023.057617,120.659943 1023.026001,126.874222 
	C1022.912415,149.193527 1022.909424,171.514053 1023.015747,193.833405 
	C1023.047974,200.605087 1026.454346,204.029633 1033.223755,204.059586 
	C1057.875122,204.168686 1082.527588,204.183273 1107.178833,204.060379 
	C1114.418579,204.024292 1118.016968,198.971756 1116.372437,191.339218 
	C1094.541748,191.339218 1072.618286,191.339218 1050.605103,191.339218 
	C1050.605103,182.532211 1050.605103,174.146332 1050.605103,165.359955 
	C1052.593628,165.359955 1054.231689,165.360199 1055.869751,165.359909 
	C1070.361206,165.357269 1084.853271,165.437088 1099.343872,165.319748 
	C1107.544800,165.253357 1110.805908,161.466385 1110.374878,152.475708 
	C1090.506958,152.475708 1070.604614,152.475708 1050.664795,152.475708 
	C1050.664795,144.571198 1050.664795,137.209625 1050.664795,129.520370 
	C1061.215698,129.520370 1071.357788,129.520370 1082.499756,129.520447 
M1713.413086,165.359436 
	C1716.410645,165.339813 1719.415039,165.442642 1722.404419,165.276291 
	C1729.691772,164.870834 1733.054565,160.336868 1731.714844,152.522369 
	C1712.000977,152.522369 1692.231689,152.522369 1672.242432,152.522369 
	C1672.242432,144.784409 1672.242432,137.352829 1672.242432,129.519821 
	C1674.230347,129.519821 1676.018066,129.520004 1677.805786,129.519791 
	C1694.294800,129.517914 1710.784302,129.592941 1727.272583,129.482346 
	C1735.817993,129.425034 1739.330566,125.398262 1738.602417,116.792259 
	C1710.499512,116.792259 1682.378296,116.683830 1654.259155,116.874001 
	C1647.810791,116.917603 1644.830811,120.364426 1644.788330,127.269440 
	C1644.651978,149.419846 1644.645752,171.572296 1644.797974,193.722504 
	C1644.847046,200.858246 1648.220947,204.049606 1655.383423,204.077332 
	C1679.700073,204.171463 1704.017578,204.175903 1728.334229,204.093964 
	C1735.966797,204.068237 1739.588745,199.468582 1738.384766,191.335571 
	C1716.398682,191.335571 1694.345093,191.335571 1672.249756,191.335571 
	C1672.249756,182.455566 1672.249756,174.011475 1672.249756,165.359421 
	C1685.797607,165.359421 1699.116577,165.359421 1713.413086,165.359436 
M593.493591,164.999771 
	C586.718018,171.167282 579.780762,177.169983 573.245850,183.582687 
	C570.595764,186.183228 568.126587,189.407806 566.804138,192.824173 
	C564.509033,198.753174 568.482483,204.014694 574.828735,204.029266 
	C602.650146,204.093216 630.471863,204.099167 658.293091,204.011856 
	C666.198730,203.987061 669.843262,199.345474 668.524414,190.932007 
	C645.914673,190.932007 623.225342,190.932007 599.664001,190.932007 
	C601.680176,189.048370 602.976501,187.819412 604.291748,186.611023 
	C622.447815,169.931152 640.606750,153.254501 658.764099,136.576050 
	C663.006531,132.679184 666.392883,128.299500 664.127319,122.160484 
	C661.901245,116.128174 656.325562,116.714554 651.402588,116.699722 
	C624.414246,116.618385 597.425598,116.656334 570.437012,116.668198 
	C569.127808,116.668770 567.818604,116.809616 566.422546,116.890152 
	C566.422546,121.138466 566.422546,125.172409 566.422546,129.731506 
	C588.106262,129.731506 609.454224,129.731506 632.105652,129.731506 
	C618.755127,141.926270 606.385010,153.225464 593.493591,164.999771 
M1840.647827,129.533600 
	C1842.293579,129.784622 1843.972534,129.904434 1845.579468,130.309402 
	C1852.608276,132.080566 1856.258179,136.917236 1856.087402,144.088364 
	C1855.944214,150.102005 1852.621460,153.765533 1845.375610,155.191696 
	C1841.814331,155.892685 1838.104248,155.809402 1834.472900,156.189346 
	C1825.719849,157.105103 1816.919678,157.748932 1808.240479,159.139084 
	C1800.572632,160.367203 1795.684326,165.544312 1794.179199,172.960480 
	C1792.834473,179.586700 1792.369873,186.446594 1792.121460,193.225540 
	C1791.847412,200.702118 1795.195435,204.051270 1802.583984,204.080826 
	C1826.736572,204.177414 1850.890137,204.186493 1875.042725,204.087875 
	C1882.581177,204.057083 1886.189941,199.241592 1884.774536,191.068832 
	C1862.989014,191.068832 1841.110352,191.068832 1819.267944,191.068832 
	C1818.447754,174.842545 1823.787354,169.342987 1839.260742,168.964722 
	C1848.054810,168.749741 1856.874023,167.996384 1865.596069,166.838318 
	C1875.169556,165.567230 1881.112549,159.852005 1883.192139,150.279419 
	C1886.633789,134.438019 1877.710205,120.348251 1861.474243,117.259399 
	C1838.714478,112.929398 1816.119263,116.491928 1793.127197,119.164459 
	C1793.663818,123.983047 1794.132690,128.191574 1794.533691,131.792450 
	C1809.946045,130.989731 1824.858276,130.213058 1840.647827,129.533600 
M1525.643799,152.500198 
	C1525.643799,140.721893 1525.643799,128.943588 1525.643799,116.926788 
	C1516.192749,116.926788 1507.280884,116.926788 1498.390015,116.926788 
	C1498.390015,146.099350 1498.390015,175.003937 1498.390015,203.773987 
	C1507.592651,203.773987 1516.482910,203.773987 1525.643799,203.773987 
	C1525.643799,186.771210 1525.643799,170.135712 1525.643799,152.500198 
M537.542542,204.129700 
	C543.985535,204.129700 550.428528,204.129700 556.972595,204.129700 
	C556.972595,174.812302 556.972595,145.957031 556.972595,116.895035 
	C547.963196,116.895035 539.223328,116.895035 530.271973,116.895035 
	C530.271973,145.994141 530.271973,174.987625 530.271973,204.129700 
	C532.581970,204.129700 534.567627,204.129700 537.542542,204.129700 
z"/>
<path fill="#FDFDFD" opacity="1.000000" stroke="none" 
	d="
M63.855927,182.110626 
	C65.787613,182.110641 67.234901,182.110641 69.042877,182.110641 
	C69.042877,185.229858 68.998100,187.861420 69.050568,190.491043 
	C69.285927,202.286530 76.726616,209.837769 88.513527,209.912735 
	C106.502190,210.027161 124.516762,210.541702 142.475449,209.799835 
	C166.443573,208.809753 186.520248,215.357788 200.414383,236.467987 
	C203.137680,233.436401 205.531479,230.677444 208.025131,228.011871 
	C219.054657,216.221878 232.671082,210.113861 248.803391,209.993713 
	C268.290833,209.848587 287.780090,209.954437 307.268585,209.945465 
	C322.882996,209.938263 329.653717,203.119720 329.704620,187.363449 
	C329.709869,185.742996 329.705353,184.122498 329.705353,182.315948 
	C342.146271,182.315948 354.097107,182.315948 366.519287,182.315948 
	C367.731598,197.086014 365.596436,211.064392 356.686890,223.363937 
	C345.514618,238.787048 330.398468,246.996429 311.204346,247.090149 
	C291.383148,247.186935 271.560303,247.220581 251.739960,247.060745 
	C244.221558,247.000122 238.275986,249.513550 233.414291,255.334808 
	C227.332153,262.617401 220.866608,269.579254 214.585724,276.696503 
	C205.064087,287.486053 191.867645,286.994446 183.180908,275.467590 
	C178.372910,269.087616 173.506470,262.744690 168.916504,256.209381 
	C164.400589,249.779587 158.374191,247.020767 150.600861,247.070694 
	C130.113800,247.202316 109.625206,247.157242 89.137421,247.104446 
	C59.352253,247.027695 37.379772,228.592453 32.552814,199.233292 
	C31.675388,193.896484 32.427780,188.291702 32.427780,182.110626 
	C42.539310,182.110626 52.955421,182.110626 63.855927,182.110626 
z"/>
<path fill="#FDFDFD" opacity="1.000000" stroke="none" 
	d="
M78.031021,61.903358 
	C82.265732,61.537495 86.070885,61.003914 89.878258,60.987595 
	C109.869560,60.901909 129.861923,60.865059 149.852844,60.986206 
	C158.125412,61.036339 164.627106,58.256748 169.440414,51.250614 
	C174.055466,44.533028 179.128876,38.126778 184.082947,31.646456 
	C191.771408,21.589312 204.961060,20.908175 213.526428,30.249542 
	C220.504807,37.860142 227.339096,45.607971 234.068573,53.439896 
	C238.508331,58.607002 244.006409,60.970020 250.726822,60.959248 
	C270.718445,60.927204 290.711151,60.822598 310.701538,60.984985 
	C337.918945,61.206074 359.550903,78.762360 365.445007,105.305008 
	C366.234100,108.858467 366.475494,112.555222 366.715057,116.202393 
	C366.919739,119.318481 366.757416,122.458664 366.757416,125.845413 
	C354.348999,125.845413 342.276123,125.845413 329.702972,125.845413 
	C329.702972,123.350067 329.765717,120.907784 329.692474,118.469574 
	C329.305481,105.585579 321.757874,98.174118 308.824463,98.130661 
	C290.498993,98.069077 272.164337,97.758621 253.849792,98.210449 
	C233.630310,98.709274 217.181015,91.575310 204.358948,75.971657 
	C203.206680,74.569427 201.932770,73.267189 200.527176,71.710052 
	C190.845123,86.035461 177.906036,94.930893 160.978455,97.519890 
	C157.709045,98.019920 154.350037,98.081581 151.031723,98.090034 
	C131.373383,98.140099 111.714844,98.113991 92.056374,98.115234 
	C75.848656,98.116264 69.076706,104.914200 69.040215,121.217140 
	C69.036934,122.683746 69.039780,124.150360 69.039780,125.864151 
	C56.655430,125.864151 44.584568,125.864151 32.515278,125.864151 
	C27.550587,95.824234 47.325459,67.813370 78.031021,61.903358 
z"/>
<path fill="#FCFCFC" opacity="1.000000" stroke="none" 
	d="
M1618.286377,204.085678 
	C1609.173218,203.267059 1602.552368,198.792435 1597.050903,192.402908 
	C1586.613770,180.280991 1576.227173,168.115540 1565.817505,155.970123 
	C1564.788330,154.769577 1563.742554,153.583389 1562.039062,151.626175 
	C1562.039062,169.572342 1562.039062,186.476654 1562.039062,203.757294 
	C1552.799561,203.757294 1543.901733,203.757294 1534.530029,203.757294 
	C1534.459351,202.489822 1534.311157,201.061279 1534.310181,199.632645 
	C1534.296143,176.801178 1534.280396,153.969666 1534.331055,131.138306 
	C1534.336548,128.655365 1534.532837,126.128860 1535.026367,123.700951 
	C1535.841064,119.692604 1538.378784,117.360146 1542.550049,116.851219 
	C1554.440796,115.400429 1564.523926,117.416130 1572.670044,127.773010 
	C1583.764526,141.878189 1596.074097,155.027679 1608.631836,169.471786 
	C1608.631836,151.352341 1608.631836,134.331909 1608.631836,116.997658 
	C1617.880737,116.997658 1626.631226,116.997658 1636.097534,116.997658 
	C1636.097534,118.567070 1636.097534,120.329163 1636.097534,122.091255 
	C1636.097534,143.756149 1636.098022,165.421051 1636.097412,187.085938 
	C1636.097046,202.305801 1634.081787,204.280441 1618.286377,204.085678 
z"/>
<path fill="#FCFCFC" opacity="1.000000" stroke="none" 
	d="
M1373.751831,125.073914 
	C1373.751831,145.880768 1373.416504,166.206055 1373.860474,186.514313 
	C1374.200928,202.087738 1370.672974,206.417847 1351.424805,203.332809 
	C1344.629883,202.243729 1339.346924,197.949814 1334.903442,192.787338 
	C1324.366455,180.545593 1313.870850,168.268372 1303.346924,156.015457 
	C1302.301025,154.797867 1301.175049,153.649170 1299.337646,151.656799 
	C1299.337646,169.695755 1299.337646,186.704315 1299.337646,203.920990 
	C1290.071167,203.920990 1281.307983,203.920990 1272.241211,203.920990 
	C1272.144653,203.025970 1271.955200,202.085846 1271.954468,201.145569 
	C1271.938599,177.330276 1271.912231,153.514893 1271.956665,129.699677 
	C1271.976074,119.325478 1274.708252,117.337807 1284.947754,116.507957 
	C1295.943359,115.616837 1303.585205,119.950890 1310.353027,128.134384 
	C1321.676636,141.826828 1333.582275,155.037827 1346.019775,169.344925 
	C1346.019775,151.289978 1346.019775,134.291641 1346.019775,116.990211 
	C1355.468750,116.990211 1364.346436,116.990211 1373.751831,116.990211 
	C1373.751831,119.671318 1373.751831,122.128159 1373.751831,125.073914 
z"/>
<path fill="#FBFBFB" opacity="1.000000" stroke="none" 
	d="
M444.019623,204.139160 
	C426.097595,204.138565 425.085327,203.138702 425.085571,185.922546 
	C425.085846,166.946487 425.060852,147.970367 425.098206,128.994370 
	C425.116119,119.900917 428.038208,116.715927 436.892487,116.711723 
	C454.866730,116.703194 472.842896,116.809410 490.814514,117.101471 
	C498.493103,117.226257 505.418823,119.681526 511.382233,124.850815 
	C522.080566,134.124542 522.330078,146.890381 511.774811,156.301987 
	C510.818726,157.154465 509.859558,158.003494 508.612701,159.110931 
	C509.960876,160.076050 511.021149,160.799927 512.044434,161.572861 
	C525.842651,171.995926 524.082947,192.159576 508.064484,198.840057 
	C500.303894,202.076614 491.429474,203.432053 482.952545,203.976517 
	C470.189362,204.796280 457.332489,204.157745 444.019623,204.139160 
M470.388855,190.652710 
	C476.481506,189.430222 482.844604,188.925125 488.582611,186.761902 
	C493.307922,184.980453 494.761353,180.041550 494.011475,174.977707 
	C493.333862,170.401642 490.030334,167.623337 485.933533,167.278061 
	C474.951385,166.352478 463.909302,166.138138 452.847595,165.639343 
	C452.847595,174.575333 452.847595,182.352905 452.847595,190.652664 
	C458.511871,190.652664 463.964966,190.652664 470.388855,190.652710 
M452.633301,146.485489 
	C452.633301,148.583038 452.633301,150.680588 452.633301,153.052979 
	C461.624390,153.052979 470.084930,153.077682 478.545013,153.027130 
	C479.860565,153.019272 481.188782,152.737122 482.486084,152.463226 
	C489.226227,151.040161 492.119995,148.114853 492.013000,142.900055 
	C491.881104,136.469971 487.907410,131.444992 481.454620,131.119873 
	C472.044586,130.645752 462.592865,130.998077 452.633301,130.998077 
	C452.633301,135.918900 452.633301,140.702011 452.633301,146.485489 
z"/>
<path fill="#FAFAFA" opacity="1.000000" stroke="none" 
	d="
M1385.905273,184.998627 
	C1381.928589,170.675613 1381.798584,156.616440 1385.216431,142.650406 
	C1388.363647,129.789856 1396.154663,121.256516 1409.650024,118.623238 
	C1427.702393,115.100754 1445.751709,114.812378 1463.646851,119.200897 
	C1479.251221,123.027611 1488.041626,133.900879 1488.441650,149.203583 
	C1479.556641,149.203583 1470.669434,149.203583 1461.769775,149.203583 
	C1457.898071,134.453018 1451.220093,129.950043 1434.416260,130.784515 
	C1420.949097,131.453293 1412.492798,138.458740 1411.098145,152.086319 
	C1410.252075,160.354874 1410.514404,169.146317 1412.426514,177.192429 
	C1415.353638,189.509140 1427.284424,195.622711 1441.171143,193.668716 
	C1453.066772,191.994888 1460.431274,183.395325 1460.990601,169.964905 
	C1451.954102,169.964905 1442.922485,169.964905 1433.608032,169.964905 
	C1433.608032,165.469482 1433.608032,161.556168 1433.608032,156.955887 
	C1438.261475,156.955887 1442.853882,156.953278 1447.446289,156.956421 
	C1457.272461,156.963120 1467.100342,156.858505 1476.924194,157.013657 
	C1486.561890,157.165863 1490.143433,161.185837 1489.514526,170.771194 
	C1489.329468,173.594559 1489.194824,176.440063 1488.725098,179.222794 
	C1486.127563,194.612167 1479.952026,201.193954 1464.393066,204.176331 
	C1445.571411,207.784119 1426.630127,207.199615 1407.712891,204.715622 
	C1396.115967,203.192856 1389.394287,196.147964 1385.905273,184.998627 
z"/>
<path fill="#FBFBFB" opacity="1.000000" stroke="none" 
	d="
M945.979370,130.087448 
	C934.199585,130.087448 922.916016,130.087448 911.680664,130.087448 
	C911.064026,121.502632 913.578857,116.981651 920.023865,116.994041 
	C942.825195,117.037895 965.680908,116.779228 988.407715,118.277573 
	C1004.882019,119.363693 1013.418762,134.103790 1009.087952,150.138992 
	C1006.442017,159.935745 998.957703,163.538361 990.242554,165.843216 
	C989.602295,166.012543 988.927124,166.047897 988.269653,166.154739 
	C987.660950,166.253647 987.054382,166.364883 985.500610,166.635437 
	C995.257263,179.231964 1004.560547,191.243240 1014.527771,204.111633 
	C1004.210205,204.111633 994.682312,204.227722 985.164795,203.966522 
	C983.958740,203.933411 982.638977,202.055450 981.656555,200.807983 
	C974.031555,191.125595 966.378662,181.461853 958.961609,171.621063 
	C956.848999,168.818024 954.659851,167.464050 951.080078,167.778900 
	C947.285950,168.112625 943.439697,167.853882 939.046021,167.853882 
	C939.046021,179.875946 939.046021,191.763245 939.046021,203.888947 
	C929.575623,203.888947 920.675415,203.888947 911.534668,203.888947 
	C911.534668,187.266861 911.534668,170.849228 911.534668,153.877075 
	C920.631836,153.877075 929.557251,153.850189 938.482361,153.884018 
	C949.135010,153.924393 959.799927,154.364624 970.436401,153.983536 
	C980.053467,153.638977 984.893250,146.447891 981.935181,137.993973 
	C980.095642,132.736740 975.642273,131.288254 970.878906,130.970947 
	C962.760864,130.430237 954.611694,130.357056 945.979370,130.087448 
z"/>
<path fill="#FCFCFC" opacity="1.000000" stroke="none" 
	d="
M771.047485,148.870102 
	C777.926270,167.266129 784.696655,185.287735 791.649170,203.794189 
	C782.221558,203.794189 773.352356,203.794189 764.222900,203.794189 
	C760.999329,195.584946 757.586975,187.299286 754.528015,178.885178 
	C753.460571,175.949066 752.133667,174.769485 748.863098,174.852585 
	C739.204163,175.098007 729.533020,175.046036 719.870972,174.870743 
	C717.239075,174.822998 716.073242,175.774658 715.199036,178.113052 
	C712.347778,185.740005 709.400574,193.335571 706.247070,200.841019 
	C705.681030,202.188232 703.990356,203.948334 702.766357,203.990479 
	C694.622986,204.270844 686.465393,204.135803 677.684998,204.135803 
	C680.170837,197.515625 682.491516,191.344055 684.806091,185.170212 
	C691.807373,166.495132 698.760742,147.801926 705.825012,129.150726 
	C709.500732,119.446342 713.522034,116.737320 723.838928,116.686295 
	C731.504211,116.648384 739.171143,116.768623 746.835022,116.656593 
	C755.043701,116.536598 760.369263,120.362915 763.191406,127.972275 
	C765.734070,134.828171 768.353394,141.655670 771.047485,148.870102 
M730.108276,137.627289 
	C727.262451,145.618378 724.416565,153.609467 721.460083,161.911118 
	C730.736816,161.911118 739.169922,161.911118 748.082764,161.911118 
	C743.656250,149.748001 739.336121,137.877106 734.717834,125.186974 
	C733.025574,129.762650 731.706177,133.330109 730.108276,137.627289 
z"/>
<path fill="#FCFCFC" opacity="1.000000" stroke="none" 
	d="
M839.733765,130.085144 
	C826.298523,130.084763 813.338928,130.084763 800.424133,130.084763 
	C799.315979,120.651787 802.377625,116.763435 811.259277,116.732254 
	C829.578186,116.667938 847.898682,116.798584 866.216919,116.995186 
	C870.027588,117.036064 873.835449,117.675858 877.637878,118.099258 
	C898.185547,120.387245 902.382141,142.493591 895.661987,154.942551 
	C891.272400,163.074234 883.137695,164.713699 874.095947,166.805862 
	C878.988464,173.114685 883.696716,179.189178 888.408630,185.260803 
	C893.060242,191.254730 897.715576,197.245728 903.064331,204.132980 
	C892.793274,204.132980 883.559937,204.239914 874.335144,204.009415 
	C873.056885,203.977463 871.544678,202.497208 870.607788,201.316742 
	C862.742065,191.406494 854.879578,181.489426 847.266541,171.385651 
	C845.237183,168.692322 843.138916,167.553360 839.808777,167.784943 
	C835.850586,168.060226 831.858582,167.849747 827.492310,167.849747 
	C827.492310,179.950363 827.492310,191.712631 827.492310,203.804993 
	C818.222107,203.804993 809.335571,203.804993 800.192871,203.804993 
	C800.192871,187.273788 800.192871,170.719238 800.192871,154.157700 
	C811.350342,154.157700 822.282410,154.161148 833.214478,154.156570 
	C841.542053,154.153076 849.876343,154.345673 858.195496,154.076416 
	C867.939453,153.761063 873.182251,147.063095 870.689575,138.672058 
	C869.041016,133.122528 864.611267,131.404480 859.608582,130.980530 
	C853.163208,130.434311 846.677673,130.361954 839.733765,130.085144 
z"/>
<path fill="#FAFAFA" opacity="1.000000" stroke="none" 
	d="
M1229.000488,116.662827 
	C1240.636963,116.662872 1251.773315,116.662872 1262.858276,116.662872 
	C1264.125122,125.100433 1260.506104,129.414780 1251.932007,129.485977 
	C1235.778076,129.620148 1219.622192,129.527008 1203.467163,129.528320 
	C1201.471924,129.528473 1199.476562,129.528336 1197.061890,129.528336 
	C1197.061890,137.058853 1197.061890,144.436996 1197.061890,152.354614 
	C1216.859009,152.354614 1236.742676,152.354614 1256.581787,152.354614 
	C1257.213379,161.195419 1253.798462,165.263275 1245.703003,165.322418 
	C1229.571411,165.440277 1213.438232,165.357330 1196.974487,165.357330 
	C1196.974487,174.073837 1196.974487,182.476013 1196.974487,191.453613 
	C1219.066406,191.453613 1241.104492,191.453613 1263.105225,191.453613 
	C1263.547729,200.270523 1260.306152,204.088226 1252.485596,204.110001 
	C1228.503052,204.176773 1204.520142,204.174545 1180.537598,204.110092 
	C1172.594971,204.088760 1169.156128,200.759384 1169.122192,192.911972 
	C1169.028809,171.261261 1169.025391,149.609604 1169.122681,127.958946 
	C1169.157837,120.129807 1172.519775,116.794273 1180.535156,116.721451 
	C1196.522461,116.576195 1212.511963,116.668564 1229.000488,116.662827 
z"/>
<path fill="#FCFCFC" opacity="1.000000" stroke="none" 
	d="
M1081.999756,129.520416 
	C1071.357788,129.520370 1061.215698,129.520370 1050.664795,129.520370 
	C1050.664795,137.209625 1050.664795,144.571198 1050.664795,152.475708 
	C1070.604614,152.475708 1090.506958,152.475708 1110.374878,152.475708 
	C1110.805908,161.466385 1107.544800,165.253357 1099.343872,165.319748 
	C1084.853271,165.437088 1070.361206,165.357269 1055.869751,165.359909 
	C1054.231689,165.360199 1052.593628,165.359955 1050.605103,165.359955 
	C1050.605103,174.146332 1050.605103,182.532211 1050.605103,191.339218 
	C1072.618286,191.339218 1094.541748,191.339218 1116.372437,191.339218 
	C1118.016968,198.971756 1114.418579,204.024292 1107.178833,204.060379 
	C1082.527588,204.183273 1057.875122,204.168686 1033.223755,204.059586 
	C1026.454346,204.029633 1023.047974,200.605087 1023.015747,193.833405 
	C1022.909424,171.514053 1022.912415,149.193527 1023.026001,126.874222 
	C1023.057617,120.659943 1026.071777,116.980164 1031.898682,116.937027 
	C1060.180054,116.727623 1088.463989,116.842476 1116.725342,116.842476 
	C1117.550293,125.098320 1114.290161,129.227829 1106.483887,129.445282 
	C1098.494751,129.667831 1090.494873,129.511139 1081.999756,129.520416 
z"/>
<path fill="#FCFCFC" opacity="1.000000" stroke="none" 
	d="
M1712.924316,165.359436 
	C1699.116577,165.359421 1685.797607,165.359421 1672.249756,165.359421 
	C1672.249756,174.011475 1672.249756,182.455566 1672.249756,191.335571 
	C1694.345093,191.335571 1716.398682,191.335571 1738.384766,191.335571 
	C1739.588745,199.468582 1735.966797,204.068237 1728.334229,204.093964 
	C1704.017578,204.175903 1679.700073,204.171463 1655.383423,204.077332 
	C1648.220947,204.049606 1644.847046,200.858246 1644.797974,193.722504 
	C1644.645752,171.572296 1644.651978,149.419846 1644.788330,127.269440 
	C1644.830811,120.364426 1647.810791,116.917603 1654.259155,116.874001 
	C1682.378296,116.683830 1710.499512,116.792259 1738.602417,116.792259 
	C1739.330566,125.398262 1735.817993,129.425034 1727.272583,129.482346 
	C1710.784302,129.592941 1694.294800,129.517914 1677.805786,129.519791 
	C1676.018066,129.520004 1674.230347,129.519821 1672.242432,129.519821 
	C1672.242432,137.352829 1672.242432,144.784409 1672.242432,152.522369 
	C1692.231689,152.522369 1712.000977,152.522369 1731.714844,152.522369 
	C1733.054565,160.336868 1729.691772,164.870834 1722.404419,165.276291 
	C1719.415039,165.442642 1716.410645,165.339813 1712.924316,165.359436 
z"/>
<path fill="#F9F9F9" opacity="1.000000" stroke="none" 
	d="
M593.754272,164.762207 
	C606.385010,153.225464 618.755127,141.926270 632.105652,129.731506 
	C609.454224,129.731506 588.106262,129.731506 566.422546,129.731506 
	C566.422546,125.172409 566.422546,121.138466 566.422546,116.890152 
	C567.818604,116.809616 569.127808,116.668770 570.437012,116.668198 
	C597.425598,116.656334 624.414246,116.618385 651.402588,116.699722 
	C656.325562,116.714554 661.901245,116.128174 664.127319,122.160484 
	C666.392883,128.299500 663.006531,132.679184 658.764099,136.576050 
	C640.606750,153.254501 622.447815,169.931152 604.291748,186.611023 
	C602.976501,187.819412 601.680176,189.048370 599.664001,190.932007 
	C623.225342,190.932007 645.914673,190.932007 668.524414,190.932007 
	C669.843262,199.345474 666.198730,203.987061 658.293091,204.011856 
	C630.471863,204.099167 602.650146,204.093216 574.828735,204.029266 
	C568.482483,204.014694 564.509033,198.753174 566.804138,192.824173 
	C568.126587,189.407806 570.595764,186.183228 573.245850,183.582687 
	C579.780762,177.169983 586.718018,171.167282 593.754272,164.762207 
z"/>
<path fill="#F9F9F9" opacity="1.000000" stroke="none" 
	d="
M1840.209229,129.484985 
	C1824.858276,130.213058 1809.946045,130.989731 1794.533691,131.792450 
	C1794.132690,128.191574 1793.663818,123.983047 1793.127197,119.164459 
	C1816.119263,116.491928 1838.714478,112.929398 1861.474243,117.259399 
	C1877.710205,120.348251 1886.633789,134.438019 1883.192139,150.279419 
	C1881.112549,159.852005 1875.169556,165.567230 1865.596069,166.838318 
	C1856.874023,167.996384 1848.054810,168.749741 1839.260742,168.964722 
	C1823.787354,169.342987 1818.447754,174.842545 1819.267944,191.068832 
	C1841.110352,191.068832 1862.989014,191.068832 1884.774536,191.068832 
	C1886.189941,199.241592 1882.581177,204.057083 1875.042725,204.087875 
	C1850.890137,204.186493 1826.736572,204.177414 1802.583984,204.080826 
	C1795.195435,204.051270 1791.847412,200.702118 1792.121460,193.225540 
	C1792.369873,186.446594 1792.834473,179.586700 1794.179199,172.960480 
	C1795.684326,165.544312 1800.572632,160.367203 1808.240479,159.139084 
	C1816.919678,157.748932 1825.719849,157.105103 1834.472900,156.189346 
	C1838.104248,155.809402 1841.814331,155.892685 1845.375610,155.191696 
	C1852.621460,153.765533 1855.944214,150.102005 1856.087402,144.088364 
	C1856.258179,136.917236 1852.608276,132.080566 1845.579468,130.309402 
	C1843.972534,129.904434 1842.293579,129.784622 1840.209229,129.484985 
z"/>
<path fill="#F9F9F9" opacity="1.000000" stroke="none" 
	d="
M1525.643799,153.000214 
	C1525.643799,170.135712 1525.643799,186.771210 1525.643799,203.773987 
	C1516.482910,203.773987 1507.592651,203.773987 1498.390015,203.773987 
	C1498.390015,175.003937 1498.390015,146.099350 1498.390015,116.926788 
	C1507.280884,116.926788 1516.192749,116.926788 1525.643799,116.926788 
	C1525.643799,128.943588 1525.643799,140.721893 1525.643799,153.000214 
z"/>
<path fill="#FFFFFF" opacity="1.000000" stroke="none" 
	d="
M537.047974,204.129700 
	C534.567627,204.129700 532.581970,204.129700 530.271973,204.129700 
	C530.271973,174.987625 530.271973,145.994141 530.271973,116.895035 
	C539.223328,116.895035 547.963196,116.895035 556.972595,116.895035 
	C556.972595,145.957031 556.972595,174.812302 556.972595,204.129700 
	C550.428528,204.129700 543.985535,204.129700 537.047974,204.129700 
z"/>
<path fill="#060606" opacity="0.000000" stroke="none" 
	d="
M469.903473,190.652679 
	C463.964966,190.652664 458.511871,190.652664 452.847595,190.652664 
	C452.847595,182.352905 452.847595,174.575333 452.847595,165.639343 
	C463.909302,166.138138 474.951385,166.352478 485.933533,167.278061 
	C490.030334,167.623337 493.333862,170.401642 494.011475,174.977707 
	C494.761353,180.041550 493.307922,184.980453 488.582611,186.761902 
	C482.844604,188.925125 476.481506,189.430222 469.903473,190.652679 
z"/>
<path fill="#020202" opacity="0.000000" stroke="none" 
	d="
M452.633301,145.985291 
	C452.633301,140.702011 452.633301,135.918900 452.633301,130.998077 
	C462.592865,130.998077 472.044586,130.645752 481.454620,131.119873 
	C487.907410,131.444992 491.881104,136.469971 492.013000,142.900055 
	C492.119995,148.114853 489.226227,151.040161 482.486084,152.463226 
	C481.188782,152.737122 479.860565,153.019272 478.545013,153.027130 
	C470.084930,153.077682 461.624390,153.052979 452.633301,153.052979 
	C452.633301,150.680588 452.633301,148.583038 452.633301,145.985291 
z"/>
<path fill="#060606" opacity="0.000000" stroke="none" 
	d="
M730.247559,137.262436 
	C731.706177,133.330109 733.025574,129.762650 734.717834,125.186974 
	C739.336121,137.877106 743.656250,149.748001 748.082764,161.911118 
	C739.169922,161.911118 730.736816,161.911118 721.460083,161.911118 
	C724.416565,153.609467 727.262451,145.618378 730.247559,137.262436 
z"/>
</svg>