<?xml version="1.0" standalone="no"?>
<!DOCTYPE svg PUBLIC "-//W3C//DTD SVG 20010904//EN" "http://www.w3.org/TR/2001/REC-SVG-20010904/DTD/svg10.dtd">
<!-- Created using Krita: https://krita.org -->
<svg xmlns="http://www.w3.org/2000/svg" 
    xmlns:xlink="http://www.w3.org/1999/xlink"
    xmlns:krita="http://krita.org/namespaces/svg/krita"
    xmlns:sodipodi="http://sodipodi.sourceforge.net/DTD/sodipodi-0.dtd"
    width="737.28pt"
    height="737.28pt"
    viewBox="0 0 737.28 737.28">
<defs/>
<path id="shape0" transform="matrix(0.72 0 0 0.72 126.72 172.8)" fill="#ffffff" stroke-opacity="0" stroke="#000000" stroke-width="0" stroke-linecap="square" stroke-linejoin="bevel" d="M0 0L96 0L96 16L432 16L432 0L528 0L528 400L512 400L512 464L496 464L496 512L480 512L480 544L464 544L464 560L416 560L416 576L368 576L368 592L160 592L160 576L112 576L112 560L64 560L64 544L48 544L48 512L32 512L32 464L16 464L16 400L0 400Z" sodipodi:nodetypes="ccccccccccccccccccccccccccccccccc"/><path id="shape1" transform="matrix(0.72 0 0 0.72 115.2 126.72)" fill="#33170a" stroke-opacity="0" stroke="#000000" stroke-width="0" stroke-linecap="square" stroke-linejoin="bevel" d="M112 0L448 0L448 16L544 16L544 32L560 32L560 96L656 96L656 112L560 112L560 400L592 400L592 416L560 416L560 464L544 464L544 64L448 64L448 80L112 80L112 64L16 64L16 464L0 464L0 32L16 32L16 16L112 16Z" sodipodi:nodetypes="ccccccccccccccccccccccccccccc"/><path id="shape2" transform="matrix(0.72 0 0 0.72 126.72 172.8)" fill="#e2e2e2" stroke-opacity="0" stroke="#000000" stroke-width="0" stroke-linecap="square" stroke-linejoin="bevel" d="M0 0L64 0L64 400L80 400L80 464L96 464L96 496L112 496L112 512L128 512L128 528L160 528L160 544L240 544L240 592L160 592L160 576L112 576L112 560L64 560L64 544L48 544L48 512L32 512L32 464L16 464L16 400L0 400Z" sodipodi:nodetypes="ccccccccccccccccccccccccccccc"/><path id="shape3" transform="matrix(0.72 0 0 0.72 518.4 207.36)" fill="#ffffff" stroke-opacity="0" stroke="#000000" stroke-width="0" stroke-linecap="square" stroke-linejoin="bevel" d="M0 0L96 0L96 16L128 16L128 32L144 32L144 240L128 240L128 256L80 256L80 272L32 272L32 288L0 288L0 240L32 240L32 224L80 224L80 208L96 208L96 64L80 64L80 48L0 48Z" sodipodi:nodetypes="ccccccccccccccccccccccccc"/><path id="shape4" transform="matrix(0.72 0 0 0.72 126.72 172.8)" fill="#b2b2b2" stroke-opacity="0" stroke="#000000" stroke-width="0" stroke-linecap="square" stroke-linejoin="bevel" d="M0 0L32 0L32 400L48 400L48 464L64 464L64 496L80 496L80 512L96 512L96 528L112 528L112 560L64 560L64 544L48 544L48 512L32 512L32 464L16 464L16 400L0 400Z" sodipodi:nodetypes="ccccccccccccccccccccccc"/><path id="shape5" transform="matrix(0.72 0 0 0.72 253.44 253.44)" fill="#000000" stroke-opacity="0" stroke="#000000" stroke-width="0" stroke-linecap="square" stroke-linejoin="bevel" d="M128 0L160 0L160 32L144 32L144 64L128 64L128 96L112 96L112 112L176 112L176 128L160 128L160 144L144 144L144 160L128 160L128 176L112 176L112 192L96 192L96 208L80 208L80 224L64 224L64 240L48 240L48 256L16 256L16 224L32 224L32 192L48 192L48 160L64 160L64 144L0 144L0 128L16 128L16 112L32 112L32 96L48 96L48 80L64 80L64 64L80 64L80 48L96 48L96 32L112 32L112 16L128 16Z" sodipodi:nodetypes="ccccccccccccccccccccccccccccccccccccccccccccccccccccc"/><path id="shape6" transform="matrix(0.72 0 0 0.72 437.76 149.76)" fill="#000000" stroke-opacity="0" stroke="#000000" stroke-width="0" stroke-linecap="square" stroke-linejoin="bevel" d="M96 0L112 0L112 64L208 64L208 80L112 80L112 128L192 128L192 144L112 144L112 304L144 304L144 320L112 320L112 368L144 368L144 384L112 384L112 432L96 432L96 32L0 32L0 16L96 16Z" sodipodi:nodetypes="ccccccccccccccccccccccccc"/><path id="shape7" transform="matrix(0.72 0 0 0.72 115.2 149.76)" fill="#000000" stroke-opacity="0" stroke="#000000" stroke-width="0" stroke-linecap="square" stroke-linejoin="bevel" d="M0 0L16 0L16 16L112 16L112 32L16 32L16 432L0 432Z" sodipodi:nodetypes="ccccccccc"/><path id="shape8" transform="matrix(0.72 0 0 0.72 126.72 172.8)" fill="#7f7f7f" stroke-opacity="0" stroke="#000000" stroke-width="0" stroke-linecap="square" stroke-linejoin="bevel" d="M0 0L16 0L16 400L0 400Z" sodipodi:nodetypes="ccccc"/><path id="shape9" transform="matrix(0.72 0 0 0.72 518.4 368.64)" fill="#e2e2e2" stroke-opacity="0" stroke="#000000" stroke-width="0" stroke-linecap="square" stroke-linejoin="bevel" d="M32 0L144 0L144 16L128 16L128 32L80 32L80 48L32 48L32 64L0 64L0 16L32 16Z" sodipodi:nodetypes="ccccccccccccc"/><path id="shape10" transform="matrix(0.72 0 0 0.72 195.84 172.8)" fill="#000000" stroke-opacity="0" stroke="#000000" stroke-width="0" stroke-linecap="square" stroke-linejoin="bevel" d="M0 0L336 0L336 16L0 16Z" sodipodi:nodetypes="ccccc"/><path id="shape11" transform="matrix(0.72 0 0 0.72 195.84 126.72)" fill="#000000" stroke-opacity="0" stroke="#000000" stroke-width="0" stroke-linecap="square" stroke-linejoin="bevel" d="M0 0L336 0L336 16L0 16Z" sodipodi:nodetypes="ccccc"/><path id="shape12" transform="matrix(0.72 0 0 0.72 241.92 599.04)" fill="#000000" stroke-opacity="0" stroke="#000000" stroke-width="0" stroke-linecap="square" stroke-linejoin="bevel" d="M0 0L208 0L208 16L0 16Z" sodipodi:nodetypes="ccccc"/><path id="shape13" transform="matrix(0.72 0 0 0.72 207.36 576)" fill="#b2b2b2" stroke-opacity="0" stroke="#000000" stroke-width="0" stroke-linecap="square" stroke-linejoin="bevel" d="M0 0L128 0L128 32L48 32L48 16L0 16Z" sodipodi:nodetypes="ccccccc"/><path id="shape14" transform="matrix(0.72 0 0 0.72 622.08 230.4)" fill="#000000" stroke-opacity="0" stroke="#000000" stroke-width="0" stroke-linecap="square" stroke-linejoin="bevel" d="M0 0L16 0L16 208L0 208Z" sodipodi:nodetypes="ccccc"/><path id="shape15" transform="matrix(0.72 0 0 0.72 138.24 460.8)" fill="#b2b2b2" stroke-opacity="0" stroke="#000000" stroke-width="0" stroke-linecap="square" stroke-linejoin="bevel" d="M0 0L32 0L32 112L16 112L16 64L0 64Z" sodipodi:nodetypes="ccccccc"/><path id="shape16" transform="matrix(0.72 0 0 0.72 576 253.44)" fill="#000000" stroke-opacity="0" stroke="#000000" stroke-width="0" stroke-linecap="square" stroke-linejoin="bevel" d="M0 0L16 0L16 144L0 144Z" sodipodi:nodetypes="ccccc"/><path id="shape17" transform="matrix(0.72 0 0 0.72 299.52 587.52)" fill="#e2e2e2" stroke-opacity="0" stroke="#000000" stroke-width="0" stroke-linecap="square" stroke-linejoin="bevel" d="M0 0L128 0L128 16L0 16Z" sodipodi:nodetypes="ccccc"/><path id="shape18" transform="matrix(0.72 0 0 0.72 576 368.64)" fill="#e2e2e2" stroke-opacity="0" stroke="#000000" stroke-width="0" stroke-linecap="square" stroke-linejoin="bevel" d="M0 0L64 0L64 16L48 16L48 32L0 32Z" sodipodi:nodetypes="ccccccc"/><path id="shape19" transform="matrix(0.72 0 0 0.72 161.28 541.44)" fill="#7f7f7f" stroke-opacity="0" stroke="#000000" stroke-width="0" stroke-linecap="square" stroke-linejoin="bevel" d="M0 0L16 0L16 16L32 16L32 32L64 32L64 48L16 48L16 32L0 32Z" sodipodi:nodetypes="ccccccccccc"/><path id="shape20" transform="matrix(0.72 0 0 0.72 437.76 138.24)" fill="#000000" stroke-opacity="0" stroke="#000000" stroke-width="0" stroke-linecap="square" stroke-linejoin="bevel" d="M0 0L96 0L96 16L0 16Z" sodipodi:nodetypes="ccccc"/><path id="shape21" transform="matrix(0.72 0 0 0.72 126.72 138.24)" fill="#000000" stroke-opacity="0" stroke="#000000" stroke-width="0" stroke-linecap="square" stroke-linejoin="bevel" d="M0 0L96 0L96 16L0 16Z" sodipodi:nodetypes="ccccc"/><path id="shape22" transform="matrix(0.72 0 0 0.72 241.92 587.52)" fill="#7f7f7f" stroke-opacity="0" stroke="#000000" stroke-width="0" stroke-linecap="square" stroke-linejoin="bevel" d="M0 0L80 0L80 16L0 16Z" sodipodi:nodetypes="ccccc"/><path id="shape23" transform="matrix(0.72 0 0 0.72 518.4 230.4)" fill="#b2b2b2" stroke-opacity="0" stroke="#000000" stroke-width="0" stroke-linecap="square" stroke-linejoin="bevel" d="M0 0L80 0L80 16L0 16Z" sodipodi:nodetypes="ccccc"/><path id="shape24" transform="matrix(0.72 0 0 0.72 518.4 218.88)" fill="#e2e2e2" stroke-opacity="0" stroke="#000000" stroke-width="0" stroke-linecap="square" stroke-linejoin="bevel" d="M0 0L80 0L80 16L0 16Z" sodipodi:nodetypes="ccccc"/><path id="shape25" transform="matrix(0.72 0 0 0.72 299.52 587.52)" fill="#b2b2b2" stroke-opacity="0" stroke="#000000" stroke-width="0" stroke-linecap="square" stroke-linejoin="bevel" d="M0 0L64 0L64 16L0 16Z" sodipodi:nodetypes="ccccc"/><path id="shape26" transform="matrix(0.72 0 0 0.72 299.52 576)" fill="#e2e2e2" stroke-opacity="0" stroke="#000000" stroke-width="0" stroke-linecap="square" stroke-linejoin="bevel" d="M0 0L64 0L64 16L0 16Z" sodipodi:nodetypes="ccccc"/><path id="shape27" transform="matrix(0.72 0 0 0.72 495.36 460.8)" fill="#000000" stroke-opacity="0" stroke="#000000" stroke-width="0" stroke-linecap="square" stroke-linejoin="bevel" d="M0 0L16 0L16 64L0 64Z" sodipodi:nodetypes="ccccc"/><path id="shape28" transform="matrix(0.72 0 0 0.72 138.24 460.8)" fill="#7f7f7f" stroke-opacity="0" stroke="#000000" stroke-width="0" stroke-linecap="square" stroke-linejoin="bevel" d="M0 0L16 0L16 64L0 64Z" sodipodi:nodetypes="ccccc"/><path id="shape29" transform="matrix(0.72 0 0 0.72 126.72 460.8)" fill="#000000" stroke-opacity="0" stroke="#000000" stroke-width="0" stroke-linecap="square" stroke-linejoin="bevel" d="M0 0L16 0L16 64L0 64Z" sodipodi:nodetypes="ccccc"/><path id="shape30" transform="matrix(0.72 0 0 0.72 264.96 161.28)" fill="#4c220f" stroke-opacity="0" stroke="#000000" stroke-width="0" stroke-linecap="square" stroke-linejoin="bevel" d="M0 0L64 0L64 16L0 16Z" sodipodi:nodetypes="ccccc"/><path id="shape31" transform="matrix(0.72 0 0 0.72 391.68 587.52)" fill="#000000" stroke-opacity="0" stroke="#000000" stroke-width="0" stroke-linecap="square" stroke-linejoin="bevel" d="M0 0L48 0L48 16L0 16Z" sodipodi:nodetypes="ccccc"/><path id="shape32" transform="matrix(0.72 0 0 0.72 207.36 587.52)" fill="#000000" stroke-opacity="0" stroke="#000000" stroke-width="0" stroke-linecap="square" stroke-linejoin="bevel" d="M0 0L48 0L48 16L0 16Z" sodipodi:nodetypes="ccccc"/><path id="shape33" transform="matrix(0.72 0 0 0.72 426.24 576)" fill="#000000" stroke-opacity="0" stroke="#000000" stroke-width="0" stroke-linecap="square" stroke-linejoin="bevel" d="M0 0L48 0L48 16L0 16Z" sodipodi:nodetypes="ccccc"/><path id="shape34" transform="matrix(0.72 0 0 0.72 207.36 576)" fill="#7f7f7f" stroke-opacity="0" stroke="#000000" stroke-width="0" stroke-linecap="square" stroke-linejoin="bevel" d="M0 0L48 0L48 16L0 16Z" sodipodi:nodetypes="ccccc"/><path id="shape35" transform="matrix(0.72 0 0 0.72 172.8 576)" fill="#000000" stroke-opacity="0" stroke="#000000" stroke-width="0" stroke-linecap="square" stroke-linejoin="bevel" d="M0 0L48 0L48 16L0 16Z" sodipodi:nodetypes="ccccc"/><path id="shape36" transform="matrix(0.72 0 0 0.72 207.36 564.48)" fill="#b2b2b2" stroke-opacity="0" stroke="#000000" stroke-width="0" stroke-linecap="square" stroke-linejoin="bevel" d="M0 0L48 0L48 16L0 16Z" sodipodi:nodetypes="ccccc"/><path id="shape37" transform="matrix(0.72 0 0 0.72 483.84 506.88)" fill="#000000" stroke-opacity="0" stroke="#000000" stroke-width="0" stroke-linecap="square" stroke-linejoin="bevel" d="M0 0L16 0L16 48L0 48Z" sodipodi:nodetypes="ccccc"/><path id="shape38" transform="matrix(0.72 0 0 0.72 149.76 506.88)" fill="#7f7f7f" stroke-opacity="0" stroke="#000000" stroke-width="0" stroke-linecap="square" stroke-linejoin="bevel" d="M0 0L16 0L16 48L0 48Z" sodipodi:nodetypes="ccccc"/><path id="shape39" transform="matrix(0.72 0 0 0.72 138.24 506.88)" fill="#000000" stroke-opacity="0" stroke="#000000" stroke-width="0" stroke-linecap="square" stroke-linejoin="bevel" d="M0 0L16 0L16 48L0 48Z" sodipodi:nodetypes="ccccc"/><path id="shape40" transform="matrix(0.72 0 0 0.72 541.44 403.2)" fill="#000000" stroke-opacity="0" stroke="#000000" stroke-width="0" stroke-linecap="square" stroke-linejoin="bevel" d="M0 0L48 0L48 16L0 16Z" sodipodi:nodetypes="ccccc"/><path id="shape41" transform="matrix(0.72 0 0 0.72 576 391.68)" fill="#000000" stroke-opacity="0" stroke="#000000" stroke-width="0" stroke-linecap="square" stroke-linejoin="bevel" d="M0 0L48 0L48 16L0 16Z" sodipodi:nodetypes="ccccc"/><path id="shape42" transform="matrix(0.72 0 0 0.72 541.44 391.68)" fill="#b2b2b2" stroke-opacity="0" stroke="#000000" stroke-width="0" stroke-linecap="square" stroke-linejoin="bevel" d="M0 0L48 0L48 16L0 16Z" sodipodi:nodetypes="ccccc"/><path id="shape43" transform="matrix(0.72 0 0 0.72 576 380.16)" fill="#b2b2b2" stroke-opacity="0" stroke="#000000" stroke-width="0" stroke-linecap="square" stroke-linejoin="bevel" d="M0 0L48 0L48 16L0 16Z" sodipodi:nodetypes="ccccc"/><path id="shape44" transform="matrix(0.72 0 0 0.72 541.44 368.64)" fill="#ffffff" stroke-opacity="0" stroke="#000000" stroke-width="0" stroke-linecap="square" stroke-linejoin="bevel" d="M0 0L48 0L48 16L0 16Z" sodipodi:nodetypes="ccccc"/><path id="shape45" transform="matrix(0.72 0 0 0.72 541.44 357.12)" fill="#000000" stroke-opacity="0" stroke="#000000" stroke-width="0" stroke-linecap="square" stroke-linejoin="bevel" d="M0 0L48 0L48 16L0 16Z" sodipodi:nodetypes="ccccc"/><path id="shape46" transform="matrix(0.72 0 0 0.72 391.68 149.76)" fill="#4c220f" stroke-opacity="0" stroke="#000000" stroke-width="0" stroke-linecap="square" stroke-linejoin="bevel" d="M0 0L48 0L48 16L0 16Z" sodipodi:nodetypes="ccccc"/><path id="shape47" transform="matrix(0.72 0 0 0.72 207.36 149.76)" fill="#4c220f" stroke-opacity="0" stroke="#000000" stroke-width="0" stroke-linecap="square" stroke-linejoin="bevel" d="M0 0L48 0L48 16L0 16Z" sodipodi:nodetypes="ccccc"/><path id="shape48" transform="matrix(0.72 0 0 0.72 322.56 138.24)" fill="#4c220f" stroke-opacity="0" stroke="#000000" stroke-width="0" stroke-linecap="square" stroke-linejoin="bevel" d="M0 0L48 0L48 16L0 16Z" sodipodi:nodetypes="ccccc"/><path id="shape49" transform="matrix(0.72 0 0 0.72 472.32 541.44)" fill="#000000" stroke-opacity="0" stroke="#000000" stroke-width="0" stroke-linecap="square" stroke-linejoin="bevel" d="M0 0L16 0L16 32L0 32Z" sodipodi:nodetypes="ccccc"/><path id="shape50" transform="matrix(0.72 0 0 0.72 149.76 541.44)" fill="#000000" stroke-opacity="0" stroke="#000000" stroke-width="0" stroke-linecap="square" stroke-linejoin="bevel" d="M0 0L16 0L16 32L0 32Z" sodipodi:nodetypes="ccccc"/><path id="shape51" transform="matrix(0.72 0 0 0.72 518.4 403.2)" fill="#b2b2b2" stroke-opacity="0" stroke="#000000" stroke-width="0" stroke-linecap="square" stroke-linejoin="bevel" d="M0 0L32 0L32 16L0 16Z" sodipodi:nodetypes="ccccc"/><path id="shape52" transform="matrix(0.72 0 0 0.72 518.4 391.68)" fill="#e2e2e2" stroke-opacity="0" stroke="#000000" stroke-width="0" stroke-linecap="square" stroke-linejoin="bevel" d="M0 0L32 0L32 16L0 16Z" sodipodi:nodetypes="ccccc"/><path id="shape53" transform="matrix(0.72 0 0 0.72 518.4 380.16)" fill="#ffffff" stroke-opacity="0" stroke="#000000" stroke-width="0" stroke-linecap="square" stroke-linejoin="bevel" d="M0 0L32 0L32 16L0 16Z" sodipodi:nodetypes="ccccc"/><path id="shape54" transform="matrix(0.72 0 0 0.72 587.52 207.36)" fill="#000000" stroke-opacity="0" stroke="#000000" stroke-width="0" stroke-linecap="square" stroke-linejoin="bevel" d="M0 0L32 0L32 16L0 16Z" sodipodi:nodetypes="ccccc"/><path id="shape55" transform="matrix(0.72 0 0 0.72 460.8 564.48)" fill="#000000" stroke-opacity="0" stroke="#000000" stroke-width="0" stroke-linecap="square" stroke-linejoin="bevel" d="M0 0L16 0L16 16L0 16Z" sodipodi:nodetypes="ccccc"/><path id="shape56" transform="matrix(0.72 0 0 0.72 161.28 564.48)" fill="#000000" stroke-opacity="0" stroke="#000000" stroke-width="0" stroke-linecap="square" stroke-linejoin="bevel" d="M0 0L16 0L16 16L0 16Z" sodipodi:nodetypes="ccccc"/><path id="shape57" transform="matrix(0.72 0 0 0.72 610.56 380.16)" fill="#000000" stroke-opacity="0" stroke="#000000" stroke-width="0" stroke-linecap="square" stroke-linejoin="bevel" d="M0 0L16 0L16 16L0 16Z" sodipodi:nodetypes="ccccc"/><path id="shape58" transform="matrix(0.72 0 0 0.72 610.56 368.64)" fill="#b2b2b2" stroke-opacity="0" stroke="#000000" stroke-width="0" stroke-linecap="square" stroke-linejoin="bevel" d="M0 0L16 0L16 16L0 16Z" sodipodi:nodetypes="ccccc"/><path id="shape59" transform="matrix(0.72 0 0 0.72 610.56 357.12)" fill="#e2e2e2" stroke-opacity="0" stroke="#000000" stroke-width="0" stroke-linecap="square" stroke-linejoin="bevel" d="M0 0L16 0L16 16L0 16Z" sodipodi:nodetypes="ccccc"/><path id="shape60" transform="matrix(0.72 0 0 0.72 576 241.92)" fill="#b2b2b2" stroke-opacity="0" stroke="#000000" stroke-width="0" stroke-linecap="square" stroke-linejoin="bevel" d="M0 0L16 0L16 16L0 16Z" sodipodi:nodetypes="ccccc"/><path id="shape61" transform="matrix(0.72 0 0 0.72 576 230.4)" fill="#e2e2e2" stroke-opacity="0" stroke="#000000" stroke-width="0" stroke-linecap="square" stroke-linejoin="bevel" d="M0 0L16 0L16 16L0 16Z" sodipodi:nodetypes="ccccc"/><path id="shape62" transform="matrix(0.72 0 0 0.72 610.56 218.88)" fill="#000000" stroke-opacity="0" stroke="#000000" stroke-width="0" stroke-linecap="square" stroke-linejoin="bevel" d="M0 0L16 0L16 16L0 16Z" sodipodi:nodetypes="ccccc"/>
</svg>
