<svg version="1.1" id="Layer_1" xmlns="http://www.w3.org/2000/svg" xmlns:xlink="http://www.w3.org/1999/xlink" x="0px" y="0px"
	 width="100%" viewBox="0 0 1600 673" enable-background="new 0 0 1600 673" xml:space="preserve">
<path fill="#000000" opacity="0.000000" stroke="none" 
	d="
M956.000000,674.000000 
	C637.333313,674.000000 319.166656,674.000000 1.000000,674.000000 
	C1.000000,449.666656 1.000000,225.333328 1.000000,1.000000 
	C534.333313,1.000000 1067.666626,1.000000 1601.000000,1.000000 
	C1601.000000,225.333328 1601.000000,449.666656 1601.000000,674.000000 
	C1386.166626,674.000000 1171.333374,674.000000 956.000000,674.000000 
M57.501419,372.487579 
	C51.254528,372.487579 45.007641,372.487579 39.187069,372.487579 
	C39.187069,381.600006 38.164276,390.062683 39.360790,398.199005 
	C45.118446,437.351105 78.934647,466.001343 118.599060,466.002747 
	C148.756104,466.003815 178.914856,466.187378 209.069321,465.909027 
	C220.558731,465.802948 229.228699,469.987000 235.844299,479.349030 
	C242.564133,488.858673 250.091965,497.807892 256.618561,507.441101 
	C266.767181,522.420471 288.925201,523.733398 300.789398,509.261444 
	C309.864868,498.191223 319.817230,487.844604 329.151123,476.979889 
	C335.666840,469.395447 343.557281,465.833466 353.636749,465.919434 
	C381.792389,466.159546 409.953064,465.816711 438.108521,466.067902 
	C457.156036,466.237793 474.227905,460.796997 489.104370,449.059326 
	C513.838806,429.543518 522.688477,403.530670 519.671021,372.769348 
	C501.987183,372.769348 484.565704,372.769348 466.848846,372.769348 
	C466.848846,376.700500 466.870117,380.352600 466.845215,384.004333 
	C466.727936,401.186584 455.444092,412.476898 438.355988,412.484009 
	C409.032013,412.496185 379.706757,412.322815 350.384460,412.544464 
	C330.153229,412.697357 312.214417,419.428986 297.272278,433.227051 
	C291.582886,438.480804 286.516205,444.408905 281.528900,449.648071 
	C274.876495,442.872131 268.891846,435.640167 261.782654,429.770111 
	C246.691177,417.309113 228.823288,412.389496 209.378723,412.459564 
	C179.222076,412.568237 149.064651,412.532745 118.907730,412.468781 
	C103.508652,412.436127 92.159988,401.089142 91.950089,385.701752 
	C91.891800,381.428589 91.941216,377.153961 91.941216,372.487610 
	C80.439255,372.487610 69.470139,372.487610 57.501419,372.487579 
M38.581306,286.616089 
	C38.581306,288.259338 38.581306,289.902588 38.581306,291.770996 
	C56.405807,291.770996 73.978203,291.770996 91.932541,291.770996 
	C91.932541,288.260101 92.196106,284.942047 91.888123,281.677917 
	C90.335617,265.223663 103.112526,251.509399 121.542000,251.852249 
	C151.353699,252.406815 181.184830,252.192047 211.004807,251.945511 
	C238.536453,251.717926 260.867889,240.689713 277.519043,218.559708 
	C278.679016,217.018082 279.891296,215.515808 281.173157,213.875000 
	C284.927948,218.160873 288.195679,222.170120 291.753876,225.902451 
	C305.034119,239.832657 320.915192,249.314941 340.281708,250.991440 
	C354.347351,252.209030 368.559235,251.863892 382.707703,251.967499 
	C401.532867,252.105362 420.360565,251.901016 439.185760,252.035065 
	C453.886871,252.139755 464.120270,260.925873 466.270691,275.441132 
	C467.062317,280.784943 466.869324,286.274628 467.139771,292.001434 
	C476.152802,292.001434 484.951996,292.001465 493.751160,292.001465 
	C502.502258,292.001465 511.253357,292.001434 520.804443,292.001434 
	C519.966370,281.639557 520.180481,271.836517 518.240845,262.479950 
	C510.226440,223.820496 478.043732,198.162689 438.539185,198.162140 
	C410.049988,198.161728 381.559174,197.987900 353.072510,198.256317 
	C343.100006,198.350281 335.476318,194.574326 329.086426,187.237839 
	C319.788818,176.562897 310.031952,166.278717 300.953705,155.424149 
	C288.284912,140.276428 266.606812,141.930878 256.221222,157.519257 
	C249.404007,167.751648 241.644485,177.361115 234.206757,187.173615 
	C228.640915,194.516525 221.350128,198.258759 211.920410,198.216064 
	C180.432999,198.073441 148.938660,197.787292 117.458420,198.283447 
	C93.073784,198.667786 72.642235,208.477325 56.832695,227.215668 
	C42.592422,244.094009 37.048500,263.804169 38.581306,286.616089 
M856.656799,401.500214 
	C856.656799,385.545380 856.656799,369.590515 856.656799,353.530151 
	C843.260254,353.530151 830.395569,353.530151 817.043152,353.530151 
	C817.043152,378.597961 817.043152,403.297791 817.043152,428.982391 
	C814.814758,426.510315 813.269165,424.852692 811.785645,423.141296 
	C795.418396,404.259186 779.117004,385.319672 762.671143,366.506439 
	C756.679993,359.652893 750.069519,353.506714 740.178162,353.188202 
	C735.183655,353.027344 730.176697,353.055603 725.180420,353.187897 
	C715.941284,353.432556 711.490540,357.742249 710.841614,366.923340 
	C710.689026,369.082123 710.627014,371.251526 710.626160,373.416107 
	C710.613281,406.914429 710.617310,440.412720 710.617493,473.911041 
	C710.617493,475.532288 710.617554,477.153503 710.617554,478.607758 
	C724.028625,478.607758 736.923889,478.607758 750.208374,478.607758 
	C750.208374,453.507782 750.208374,428.803284 750.208374,403.326324 
	C752.597351,406.071167 754.441711,408.164215 756.258240,410.281219 
	C771.228516,427.728271 786.113647,445.249207 801.187073,462.606567 
	C811.982788,475.038086 825.768494,480.389587 842.159668,478.870361 
	C850.926575,478.057831 855.297363,473.728729 856.324768,464.977814 
	C856.576477,462.834229 856.641296,460.658539 856.643982,458.497406 
	C856.667480,439.831696 856.656982,421.165985 856.656799,401.500214 
M1088.596436,362.538269 
	C1088.301636,365.839996 1087.756836,369.141296 1087.750732,372.443573 
	C1087.687866,406.596313 1087.711914,440.749176 1087.711914,474.902008 
	C1087.711914,476.166351 1087.711914,477.430695 1087.711914,478.627563 
	C1101.111328,478.627563 1113.985962,478.627563 1127.209961,478.627563 
	C1127.209961,453.537354 1127.209961,428.822510 1127.209961,403.248108 
	C1129.719849,406.125519 1131.665527,408.323212 1133.575806,410.551239 
	C1148.425537,427.870514 1163.189575,445.264130 1178.139893,462.496002 
	C1188.914062,474.914337 1202.650635,480.353088 1219.053345,478.889038 
	C1227.843384,478.104462 1232.232178,473.904968 1233.399048,465.170898 
	C1233.662598,463.198578 1233.727539,461.187531 1233.728638,459.194214 
	C1233.747559,425.707764 1233.741699,392.221344 1233.741455,358.734894 
	C1233.741455,356.971161 1233.741455,355.207458 1233.741455,353.438354 
	C1220.286743,353.438354 1207.538574,353.438354 1194.095581,353.438354 
	C1194.095581,378.495636 1194.095581,403.281769 1194.095581,428.985291 
	C1191.780640,426.394073 1190.217041,424.687927 1188.701172,422.940216 
	C1172.334595,404.069458 1156.026489,385.147675 1139.586914,366.340698 
	C1133.820557,359.743835 1127.418579,353.790466 1118.024414,353.229736 
	C1112.381592,352.892975 1106.695679,353.059692 1101.037720,353.250916 
	C1095.234009,353.447083 1090.793579,355.872864 1088.596436,362.538269 
M580.634521,177.997299 
	C567.191895,178.146988 563.000793,182.330719 562.998291,195.642105 
	C562.992554,225.800171 562.984680,255.958237 563.002319,286.116302 
	C563.009888,299.052277 567.743835,303.791290 580.839111,303.824829 
	C601.999573,303.879028 623.160461,303.895996 644.320862,303.818542 
	C657.416748,303.770599 670.106567,301.690704 682.169250,296.213562 
	C703.711365,286.432159 707.526672,258.495605 689.216370,243.625504 
	C687.108582,241.913727 684.798584,240.450912 682.633057,238.908783 
	C685.523254,236.264267 688.281738,234.076950 690.640991,231.521118 
	C699.220154,222.227310 701.067322,209.897522 694.942261,199.799225 
	C688.543701,189.249832 679.322388,181.995331 666.930725,180.046204 
	C658.743164,178.758377 650.377686,178.196487 642.081482,178.085251 
	C621.924133,177.814957 601.760803,177.997299 580.634521,177.997299 
M1009.523254,369.982391 
	C1003.113586,363.640747 995.562378,359.152008 986.819397,357.069183 
	C961.161316,350.956573 935.354187,351.291016 909.494446,355.783630 
	C891.306213,358.943481 879.379883,369.534576 874.280701,387.027771 
	C867.789490,409.296265 868.031189,431.811035 875.143738,453.923004 
	C880.066956,469.228546 890.772705,477.977478 907.086609,480.075439 
	C927.360352,482.682678 947.658875,482.801331 967.948914,481.291382 
	C977.010559,480.617004 986.089417,478.934509 994.920959,476.744110 
	C1004.246338,474.431274 1011.840332,469.191315 1016.277649,460.143982 
	C1021.938477,448.601990 1023.343323,436.280334 1022.761902,423.706848 
	C1022.514648,418.358795 1019.454224,414.234589 1014.030823,412.734558 
	C1010.707581,411.815430 1007.206360,411.099335 1003.778687,411.071350 
	C984.613464,410.914703 965.446289,410.988800 946.279785,411.011017 
	C945.029663,411.012451 943.779846,411.238129 942.619141,411.350830 
	C942.619141,417.504608 942.619141,423.263031 942.619141,429.553894 
	C955.960144,429.553894 969.036499,429.553894 982.368958,429.553894 
	C981.731567,438.047424 979.541687,445.456757 974.863647,451.921783 
	C966.893127,462.936737 955.252075,464.800659 942.820923,464.060883 
	C927.106689,463.125702 916.325073,454.776917 911.709290,439.683990 
	C907.419800,425.658417 907.438782,411.388977 911.477417,397.339294 
	C914.888672,385.471954 922.487732,377.343811 934.941467,374.616852 
	C945.413086,372.323883 955.851257,372.853210 965.974487,376.281647 
	C974.247498,379.083496 979.672302,384.885956 981.610352,393.575989 
	C982.074829,395.658508 982.167664,397.823883 982.463989,400.214569 
	C995.517456,400.214569 1008.410889,400.214569 1021.473938,400.214569 
	C1021.273621,388.673676 1017.793518,378.756134 1009.523254,369.982391 
M1243.076050,213.625916 
	C1241.765869,196.224060 1232.866821,184.008530 1218.566162,181.224030 
	C1210.108887,179.577301 1201.433105,178.400955 1192.834473,178.255707 
	C1167.851685,177.833679 1142.858398,177.989609 1117.869141,178.017685 
	C1105.105225,178.032028 1099.662354,184.948669 1102.142578,198.002716 
	C1127.736084,198.002716 1153.376221,197.955704 1179.015747,198.052017 
	C1182.986938,198.066940 1187.020752,198.408417 1190.911865,199.175400 
	C1198.794434,200.729111 1203.468750,206.249054 1203.945435,213.926361 
	C1204.446411,221.992157 1200.464233,228.143188 1192.549316,230.477646 
	C1188.952271,231.538574 1185.039795,231.915024 1181.267090,231.933868 
	C1156.611328,232.057098 1131.954834,231.997284 1107.298462,231.997284 
	C1105.507568,231.997284 1103.716675,231.997284 1101.846191,231.997284 
	C1101.846191,256.147186 1101.846191,279.882050 1101.846191,303.542969 
	C1114.941528,303.542969 1127.699707,303.542969 1140.928101,303.542969 
	C1140.928101,286.017670 1140.928101,268.782104 1140.928101,251.171173 
	C1147.858765,251.171173 1154.332397,251.399811 1160.778687,251.078766 
	C1164.219604,250.907379 1166.227295,252.242737 1168.204590,254.814453 
	C1179.972534,270.120026 1191.930664,285.279602 1203.665039,300.610626 
	C1205.468994,302.967468 1207.242554,303.960571 1210.231934,303.911316 
	C1221.224243,303.730164 1232.221436,303.839600 1243.216797,303.839661 
	C1245.084473,303.839691 1246.952026,303.839661 1249.660889,303.839661 
	C1235.339600,285.371826 1221.721191,267.810272 1207.968872,250.076172 
	C1236.381958,244.688446 1242.390991,233.049240 1243.076050,213.625916 
M1051.735474,202.749481 
	C1050.666504,199.962524 1049.644043,197.156631 1048.520264,194.391937 
	C1043.612305,182.317184 1037.194946,178.016525 1024.077026,177.998260 
	C1013.417542,177.983429 1002.757996,177.992981 992.098511,177.995789 
	C977.323914,177.999680 971.174622,182.295624 965.950989,196.218964 
	C957.093445,219.828384 948.214417,243.429733 939.366089,267.042572 
	C934.840149,279.120392 930.361145,291.215790 925.731995,303.649475 
	C939.052551,303.649475 951.822021,303.649475 964.925476,303.649475 
	C969.890564,290.982635 975.040710,278.218201 979.841248,265.323608 
	C980.989380,262.239471 982.522400,261.416168 985.622253,261.448669 
	C1000.110901,261.600433 1014.604126,261.648773 1029.090820,261.422333 
	C1032.696411,261.365997 1034.270630,262.520599 1035.515381,265.867065 
	C1040.245728,278.584991 1045.328613,291.171753 1050.186401,303.569366 
	C1063.356689,303.569366 1076.088867,303.569366 1089.389038,303.569366 
	C1076.809204,269.926270 1064.388672,236.709045 1051.735474,202.749481 
M1261.728638,288.496552 
	C1261.728638,293.454865 1261.728638,298.413177 1261.728638,303.453308 
	C1275.066284,303.453308 1287.929932,303.453308 1301.244751,303.453308 
	C1301.244751,285.828613 1301.244751,268.586975 1301.244751,251.170654 
	C1308.352539,251.170654 1315.017944,250.931381 1321.647949,251.310532 
	C1323.747314,251.430573 1326.407349,252.679764 1327.697998,254.299042 
	C1339.216675,268.750397 1350.637329,283.286926 1361.733643,298.063660 
	C1364.908691,302.291809 1368.109985,304.221832 1373.590088,303.990448 
	C1385.298096,303.496033 1397.041504,303.839111 1409.783203,303.839111 
	C1395.474243,285.368896 1381.833008,267.760803 1368.860352,251.015488 
	C1376.981567,247.538605 1385.364258,245.288666 1392.188232,240.713776 
	C1402.359009,233.894974 1405.678955,217.585678 1401.569458,203.828461 
	C1398.055420,192.064713 1390.896606,183.765106 1378.710449,181.255554 
	C1370.115234,179.485504 1361.244995,178.399902 1352.476074,178.248245 
	C1327.816650,177.821747 1303.146118,177.995789 1278.479980,178.014130 
	C1265.196655,178.024002 1259.990723,184.449478 1262.350342,198.002319 
	C1287.946167,198.002319 1313.590210,197.959320 1339.233887,198.049088 
	C1343.041138,198.062408 1346.899658,198.415024 1350.641724,199.109818 
	C1358.966309,200.655396 1363.690796,206.098709 1364.030151,214.023590 
	C1364.392822,222.494019 1360.328491,228.487167 1352.099121,230.716248 
	C1348.626343,231.656906 1344.885010,231.929718 1341.263428,231.944611 
	C1316.597534,232.045975 1291.930908,231.997665 1267.264526,231.997665 
	C1265.483398,231.997665 1263.702393,231.997681 1261.728638,231.997681 
	C1261.728638,250.865005 1261.728638,269.181549 1261.728638,288.496552 
M1499.500000,196.175537 
	C1512.994507,196.175430 1526.489136,196.201965 1539.983521,196.167450 
	C1552.512817,196.135391 1557.215820,191.202225 1556.994263,178.221527 
	C1556.043945,178.146790 1555.073608,178.003998 1554.103271,178.003723 
	C1515.452148,177.992722 1476.801025,177.961105 1438.149902,178.015686 
	C1426.840698,178.031662 1421.922363,182.871567 1421.894653,194.099182 
	C1421.817383,225.253113 1421.858765,256.407349 1421.891235,287.561432 
	C1421.893311,289.545105 1421.960205,291.593872 1422.441284,293.500275 
	C1424.239624,300.628723 1429.313354,303.798828 1439.102295,303.823364 
	C1462.426147,303.881836 1485.750244,303.843506 1509.074219,303.843903 
	C1519.569946,303.844086 1530.067993,303.976440 1540.560913,303.807678 
	C1552.380859,303.617523 1558.350464,296.786072 1556.544678,285.401978 
	C1524.868286,285.401978 1493.125610,285.401978 1461.291992,285.401978 
	C1461.291992,272.762085 1461.291992,260.524780 1461.291992,248.005997 
	C1463.184692,248.005997 1464.824951,248.006012 1466.465210,248.005997 
	C1488.123169,248.005829 1509.781494,248.080948 1531.438965,247.974792 
	C1542.854614,247.918839 1549.041626,240.681473 1547.278687,229.486832 
	C1518.714478,229.486832 1490.100586,229.486832 1461.319946,229.486832 
	C1461.319946,218.288971 1461.319946,207.395691 1461.319946,196.175537 
	C1473.905884,196.175537 1486.203003,196.175537 1499.500000,196.175537 
M1361.342285,371.516327 
	C1376.642090,372.665863 1381.594604,366.238525 1381.481445,353.531921 
	C1380.887695,353.413818 1380.257935,353.179108 1379.628174,353.178955 
	C1340.314087,353.168457 1300.999512,353.073456 1261.686279,353.252991 
	C1251.148315,353.301117 1246.248413,358.458771 1246.196167,369.250275 
	C1246.044434,400.567535 1246.050293,431.886505 1246.194214,463.203857 
	C1246.242920,473.798889 1251.439697,478.924164 1261.923706,478.955048 
	C1296.406616,479.056702 1330.890137,479.059967 1365.373047,478.970306 
	C1376.626343,478.941040 1382.224976,472.483704 1381.232056,460.785156 
	C1349.512573,460.785156 1317.755249,460.785156 1285.725586,460.785156 
	C1285.725586,448.138763 1285.725586,435.900848 1285.725586,423.174133 
	C1287.727173,423.174133 1289.521729,423.174164 1291.316284,423.174103 
	C1312.972412,423.173187 1334.629272,423.280212 1356.284302,423.126740 
	C1367.429565,423.047760 1373.373291,415.785919 1371.487671,404.641083 
	C1342.980713,404.641083 1314.401733,404.641083 1285.748535,404.641083 
	C1285.748535,393.480591 1285.748535,382.735962 1285.748535,371.516327 
	C1310.822510,371.516327 1335.600708,371.516327 1361.342285,371.516327 
M646.500000,479.003479 
	C658.164490,479.003448 669.829285,479.051636 681.493469,478.990021 
	C693.354004,478.927368 698.587402,473.264008 698.026428,460.662750 
	C666.176514,460.662750 634.296265,460.662750 602.546387,460.662750 
	C602.546387,447.856934 602.546387,435.627228 602.546387,423.172180 
	C604.745483,423.172180 606.564392,423.172272 608.383301,423.172211 
	C629.879395,423.171417 651.376160,423.269989 672.871338,423.129089 
	C684.074341,423.055634 689.698914,416.418701 688.529297,404.637268 
	C659.868103,404.637268 631.150574,404.637268 602.477417,404.637268 
	C602.477417,393.353516 602.477417,382.603638 602.477417,371.513489 
	C608.934570,371.513489 615.084473,371.513977 621.234375,371.513428 
	C641.564026,371.511597 661.894470,371.618988 682.222961,371.465057 
	C693.858154,371.376984 700.098328,363.815491 697.601196,353.160400 
	C658.653259,353.160400 619.670471,353.135712 580.687683,353.174255 
	C567.666870,353.187134 563.012268,357.928375 563.002930,371.030060 
	C562.981323,401.191254 562.980225,431.352417 563.003357,461.513611 
	C563.013062,474.213440 567.782898,478.976868 580.511841,478.994965 
	C602.174500,479.025757 623.837280,479.003479 646.500000,479.003479 
M1560.850220,391.664154 
	C1560.653687,390.010529 1560.508301,388.348969 1560.252441,386.704529 
	C1557.814331,371.033661 1549.923340,359.770599 1534.030762,355.653412 
	C1527.151733,353.871307 1520.002686,352.250275 1512.957397,352.167603 
	C1496.490601,351.974274 1479.993774,352.401550 1463.545410,353.267456 
	C1452.676270,353.839661 1441.870239,355.608795 1430.716675,356.878357 
	C1431.509644,363.773987 1432.204590,369.817688 1432.934692,376.167511 
	C1435.347534,375.918304 1437.304565,375.665588 1439.269531,375.521057 
	C1458.178345,374.130371 1477.074097,372.424164 1496.007812,371.596680 
	C1501.249390,371.367615 1506.969360,372.959076 1511.825562,375.145782 
	C1519.355713,378.536407 1521.583008,385.466797 1521.119873,393.441620 
	C1520.697876,400.706177 1516.743164,405.372070 1510.101074,407.178192 
	C1504.402344,408.727814 1498.406372,409.312439 1492.501709,409.950531 
	C1479.620361,411.342651 1466.651245,412.059631 1453.834839,413.876068 
	C1441.841797,415.575775 1434.355835,423.302887 1432.060913,434.955994 
	C1430.274048,444.028046 1429.583740,453.390594 1429.246216,462.654633 
	C1428.822632,474.282776 1433.776978,478.966797 1445.541016,478.986023 
	C1479.200439,479.041046 1512.859985,479.043274 1546.519287,478.984955 
	C1558.249634,478.964661 1563.755371,472.820129 1562.884399,460.498901 
	C1531.387207,460.498901 1499.846802,460.498901 1468.465332,460.498901 
	C1468.200806,459.670044 1468.028931,459.365845 1468.015015,459.054474 
	C1467.149292,439.930695 1473.228394,428.551453 1496.617188,428.227142 
	C1510.996704,428.027740 1525.381104,425.738861 1539.686035,423.813599 
	C1545.350708,423.051239 1550.000244,419.672302 1553.631592,414.915863 
	C1558.714844,408.257477 1560.807373,400.783325 1560.850220,391.664154 
M822.067322,276.559479 
	C840.242004,259.894653 858.449341,243.265244 876.577209,226.549606 
	C885.269775,218.534149 894.007080,210.549774 902.345581,202.174515 
	C906.996765,197.502899 908.450317,191.381271 905.899658,185.106995 
	C903.556030,179.342209 898.161377,178.338287 892.627869,178.088852 
	C891.130432,178.021332 889.629700,178.002502 888.130493,178.002335 
	C848.803711,177.997864 809.476990,177.996399 770.150208,178.008240 
	C768.715881,178.008667 767.281616,178.148453 765.805298,178.225494 
	C765.805298,184.329468 765.805298,190.094818 765.805298,196.375519 
	C797.243958,196.375519 828.424377,196.375519 860.563538,196.375519 
	C856.109680,200.465271 852.446594,203.845871 848.765259,207.206543 
	C824.278320,229.560410 799.707764,251.823975 775.385742,274.355743 
	C771.828613,277.651062 768.546204,281.843994 766.715210,286.274017 
	C763.100891,295.018372 769.004395,303.420044 777.881348,303.377228 
	C795.541382,303.292023 813.201538,303.204681 830.861694,303.177216 
	C853.191223,303.142517 875.520996,303.142944 897.850464,303.182861 
	C903.108398,303.192261 908.145935,302.360321 910.648315,297.220612 
	C912.393555,293.636139 913.052002,289.522491 914.444031,284.804016 
	C880.170227,284.804016 847.020569,284.804016 813.175537,284.804016 
	C816.416992,281.796600 818.980469,279.418213 822.067322,276.559479 
M713.398193,280.499725 
	C713.398193,288.123810 713.398193,295.747864 713.398193,303.486755 
	C726.781799,303.486755 739.643921,303.486755 752.563232,303.486755 
	C752.563232,261.553925 752.563232,219.980209 752.563232,178.307892 
	C739.450195,178.307892 726.577942,178.307892 713.398254,178.307892 
	C713.398254,212.249573 713.398254,245.874649 713.398193,280.499725 
M1035.631226,477.440826 
	C1036.951050,477.961426 1038.262451,478.906494 1039.591919,478.932312 
	C1047.083130,479.077942 1054.578735,479.002563 1062.072754,479.002563 
	C1066.315063,479.002563 1070.557495,479.002594 1074.599121,479.002594 
	C1074.599121,436.669128 1074.599121,395.105774 1074.599121,353.413544 
	C1061.559937,353.413544 1048.816040,353.413544 1035.618530,353.413544 
	C1035.618530,394.591034 1035.618530,435.520599 1035.631226,477.440826 
z"/>
<path fill="#FDFDFD" opacity="1.000000" stroke="none" 
	d="
M58.001221,372.487610 
	C69.470139,372.487610 80.439255,372.487610 91.941216,372.487610 
	C91.941216,377.153961 91.891800,381.428589 91.950089,385.701752 
	C92.159988,401.089142 103.508652,412.436127 118.907730,412.468781 
	C149.064651,412.532745 179.222076,412.568237 209.378723,412.459564 
	C228.823288,412.389496 246.691177,417.309113 261.782654,429.770111 
	C268.891846,435.640167 274.876495,442.872131 281.528900,449.648071 
	C286.516205,444.408905 291.582886,438.480804 297.272278,433.227051 
	C312.214417,419.428986 330.153229,412.697357 350.384460,412.544464 
	C379.706757,412.322815 409.032013,412.496185 438.355988,412.484009 
	C455.444092,412.476898 466.727936,401.186584 466.845215,384.004333 
	C466.870117,380.352600 466.848846,376.700500 466.848846,372.769348 
	C484.565704,372.769348 501.987183,372.769348 519.671021,372.769348 
	C522.688477,403.530670 513.838806,429.543518 489.104370,449.059326 
	C474.227905,460.796997 457.156036,466.237793 438.108521,466.067902 
	C409.953064,465.816711 381.792389,466.159546 353.636749,465.919434 
	C343.557281,465.833466 335.666840,469.395447 329.151123,476.979889 
	C319.817230,487.844604 309.864868,498.191223 300.789398,509.261444 
	C288.925201,523.733398 266.767181,522.420471 256.618561,507.441101 
	C250.091965,497.807892 242.564133,488.858673 235.844299,479.349030 
	C229.228699,469.987000 220.558731,465.802948 209.069321,465.909027 
	C178.914856,466.187378 148.756104,466.003815 118.599060,466.002747 
	C78.934647,466.001343 45.118446,437.351105 39.360790,398.199005 
	C38.164276,390.062683 39.187069,381.600006 39.187069,372.487579 
	C45.007641,372.487579 51.254528,372.487579 58.001221,372.487610 
z"/>
<path fill="#FEFEFE" opacity="1.000000" stroke="none" 
	d="
M38.581291,286.141235 
	C37.048500,263.804169 42.592422,244.094009 56.832695,227.215668 
	C72.642235,208.477325 93.073784,198.667786 117.458420,198.283447 
	C148.938660,197.787292 180.432999,198.073441 211.920410,198.216064 
	C221.350128,198.258759 228.640915,194.516525 234.206757,187.173615 
	C241.644485,177.361115 249.404007,167.751648 256.221222,157.519257 
	C266.606812,141.930878 288.284912,140.276428 300.953705,155.424149 
	C310.031952,166.278717 319.788818,176.562897 329.086426,187.237839 
	C335.476318,194.574326 343.100006,198.350281 353.072510,198.256317 
	C381.559174,197.987900 410.049988,198.161728 438.539185,198.162140 
	C478.043732,198.162689 510.226440,223.820496 518.240845,262.479950 
	C520.180481,271.836517 519.966370,281.639557 520.804443,292.001434 
	C511.253357,292.001434 502.502258,292.001465 493.751160,292.001465 
	C484.951996,292.001465 476.152802,292.001434 467.139771,292.001434 
	C466.869324,286.274628 467.062317,280.784943 466.270691,275.441132 
	C464.120270,260.925873 453.886871,252.139755 439.185760,252.035065 
	C420.360565,251.901016 401.532867,252.105362 382.707703,251.967499 
	C368.559235,251.863892 354.347351,252.209030 340.281708,250.991440 
	C320.915192,249.314941 305.034119,239.832657 291.753876,225.902451 
	C288.195679,222.170120 284.927948,218.160873 281.173157,213.875000 
	C279.891296,215.515808 278.679016,217.018082 277.519043,218.559708 
	C260.867889,240.689713 238.536453,251.717926 211.004807,251.945511 
	C181.184830,252.192047 151.353699,252.406815 121.542000,251.852249 
	C103.112526,251.509399 90.335617,265.223663 91.888123,281.677917 
	C92.196106,284.942047 91.932541,288.260101 91.932541,291.770996 
	C73.978203,291.770996 56.405807,291.770996 38.581306,291.770996 
	C38.581306,289.902588 38.581306,288.259338 38.581291,286.141235 
z"/>
<path fill="#FCFCFC" opacity="1.000000" stroke="none" 
	d="
M856.656738,402.000244 
	C856.656982,421.165985 856.667480,439.831696 856.643982,458.497406 
	C856.641296,460.658539 856.576477,462.834229 856.324768,464.977814 
	C855.297363,473.728729 850.926575,478.057831 842.159668,478.870361 
	C825.768494,480.389587 811.982788,475.038086 801.187073,462.606567 
	C786.113647,445.249207 771.228516,427.728271 756.258240,410.281219 
	C754.441711,408.164215 752.597351,406.071167 750.208374,403.326324 
	C750.208374,428.803284 750.208374,453.507782 750.208374,478.607758 
	C736.923889,478.607758 724.028625,478.607758 710.617554,478.607758 
	C710.617554,477.153503 710.617493,475.532288 710.617493,473.911041 
	C710.617310,440.412720 710.613281,406.914429 710.626160,373.416107 
	C710.627014,371.251526 710.689026,369.082123 710.841614,366.923340 
	C711.490540,357.742249 715.941284,353.432556 725.180420,353.187897 
	C730.176697,353.055603 735.183655,353.027344 740.178162,353.188202 
	C750.069519,353.506714 756.679993,359.652893 762.671143,366.506439 
	C779.117004,385.319672 795.418396,404.259186 811.785645,423.141296 
	C813.269165,424.852692 814.814758,426.510315 817.043152,428.982391 
	C817.043152,403.297791 817.043152,378.597961 817.043152,353.530151 
	C830.395569,353.530151 843.260254,353.530151 856.656799,353.530151 
	C856.656799,369.590515 856.656799,385.545380 856.656738,402.000244 
z"/>
<path fill="#FDFDFD" opacity="1.000000" stroke="none" 
	d="
M1088.737305,362.150269 
	C1090.793579,355.872864 1095.234009,353.447083 1101.037720,353.250916 
	C1106.695679,353.059692 1112.381592,352.892975 1118.024414,353.229736 
	C1127.418579,353.790466 1133.820557,359.743835 1139.586914,366.340698 
	C1156.026489,385.147675 1172.334595,404.069458 1188.701172,422.940216 
	C1190.217041,424.687927 1191.780640,426.394073 1194.095581,428.985291 
	C1194.095581,403.281769 1194.095581,378.495636 1194.095581,353.438354 
	C1207.538574,353.438354 1220.286743,353.438354 1233.741455,353.438354 
	C1233.741455,355.207458 1233.741455,356.971161 1233.741455,358.734894 
	C1233.741699,392.221344 1233.747559,425.707764 1233.728638,459.194214 
	C1233.727539,461.187531 1233.662598,463.198578 1233.399048,465.170898 
	C1232.232178,473.904968 1227.843384,478.104462 1219.053345,478.889038 
	C1202.650635,480.353088 1188.914062,474.914337 1178.139893,462.496002 
	C1163.189575,445.264130 1148.425537,427.870514 1133.575806,410.551239 
	C1131.665527,408.323212 1129.719849,406.125519 1127.209961,403.248108 
	C1127.209961,428.822510 1127.209961,453.537354 1127.209961,478.627563 
	C1113.985962,478.627563 1101.111328,478.627563 1087.711914,478.627563 
	C1087.711914,477.430695 1087.711914,476.166351 1087.711914,474.902008 
	C1087.711914,440.749176 1087.687866,406.596313 1087.750732,372.443573 
	C1087.756836,369.141296 1088.301636,365.839996 1088.737305,362.150269 
z"/>
<path fill="#FDFDFD" opacity="1.000000" stroke="none" 
	d="
M581.117188,177.997299 
	C601.760803,177.997299 621.924133,177.814957 642.081482,178.085251 
	C650.377686,178.196487 658.743164,178.758377 666.930725,180.046204 
	C679.322388,181.995331 688.543701,189.249832 694.942261,199.799225 
	C701.067322,209.897522 699.220154,222.227310 690.640991,231.521118 
	C688.281738,234.076950 685.523254,236.264267 682.633057,238.908783 
	C684.798584,240.450912 687.108582,241.913727 689.216370,243.625504 
	C707.526672,258.495605 703.711365,286.432159 682.169250,296.213562 
	C670.106567,301.690704 657.416748,303.770599 644.320862,303.818542 
	C623.160461,303.895996 601.999573,303.879028 580.839111,303.824829 
	C567.743835,303.791290 563.009888,299.052277 563.002319,286.116302 
	C562.984680,255.958237 562.992554,225.800171 562.998291,195.642105 
	C563.000793,182.330719 567.191895,178.146988 581.117188,177.997299 
M602.159729,257.563538 
	C602.159729,266.319733 602.159729,275.075928 602.159729,283.937927 
	C615.315063,283.937927 627.931274,284.265533 640.513184,283.751160 
	C644.631897,283.582764 648.869263,281.650421 652.686523,279.778625 
	C659.848511,276.266663 663.311523,268.952942 661.943542,261.600891 
	C660.803528,255.473785 655.411255,250.639084 647.456726,250.072449 
	C636.540405,249.294830 625.567810,249.287323 614.617615,249.015839 
	C610.537231,248.914673 606.452209,248.999451 602.159607,248.999451 
	C602.159607,251.974564 602.159607,254.280670 602.159729,257.563538 
M657.074036,207.703537 
	C654.229980,201.337067 648.717163,198.519043 642.344604,198.315826 
	C629.109253,197.893784 615.851013,198.188370 602.508667,198.188370 
	C602.508667,208.944931 602.508667,219.451324 602.508667,230.025940 
	C616.144897,230.025940 629.444336,230.382996 642.715881,229.926987 
	C656.394226,229.456985 661.940796,220.909302 657.074036,207.703537 
z"/>
<path fill="#FCFCFC" opacity="1.000000" stroke="none" 
	d="
M1009.773438,370.232605 
	C1017.793518,378.756134 1021.273621,388.673676 1021.473938,400.214569 
	C1008.410889,400.214569 995.517456,400.214569 982.463989,400.214569 
	C982.167664,397.823883 982.074829,395.658508 981.610352,393.575989 
	C979.672302,384.885956 974.247498,379.083496 965.974487,376.281647 
	C955.851257,372.853210 945.413086,372.323883 934.941467,374.616852 
	C922.487732,377.343811 914.888672,385.471954 911.477417,397.339294 
	C907.438782,411.388977 907.419800,425.658417 911.709290,439.683990 
	C916.325073,454.776917 927.106689,463.125702 942.820923,464.060883 
	C955.252075,464.800659 966.893127,462.936737 974.863647,451.921783 
	C979.541687,445.456757 981.731567,438.047424 982.368958,429.553894 
	C969.036499,429.553894 955.960144,429.553894 942.619141,429.553894 
	C942.619141,423.263031 942.619141,417.504608 942.619141,411.350830 
	C943.779846,411.238129 945.029663,411.012451 946.279785,411.011017 
	C965.446289,410.988800 984.613464,410.914703 1003.778687,411.071350 
	C1007.206360,411.099335 1010.707581,411.815430 1014.030823,412.734558 
	C1019.454224,414.234589 1022.514648,418.358795 1022.761902,423.706848 
	C1023.343323,436.280334 1021.938477,448.601990 1016.277649,460.143982 
	C1011.840332,469.191315 1004.246338,474.431274 994.920959,476.744110 
	C986.089417,478.934509 977.010559,480.617004 967.948914,481.291382 
	C947.658875,482.801331 927.360352,482.682678 907.086609,480.075439 
	C890.772705,477.977478 880.066956,469.228546 875.143738,453.923004 
	C868.031189,431.811035 867.789490,409.296265 874.280701,387.027771 
	C879.379883,369.534576 891.306213,358.943481 909.494446,355.783630 
	C935.354187,351.291016 961.161316,350.956573 986.819397,357.069183 
	C995.562378,359.152008 1003.113586,363.640747 1009.773438,370.232605 
z"/>
<path fill="#FDFDFD" opacity="1.000000" stroke="none" 
	d="
M1243.068604,214.088440 
	C1242.390991,233.049240 1236.381958,244.688446 1207.968872,250.076172 
	C1221.721191,267.810272 1235.339600,285.371826 1249.660889,303.839661 
	C1246.952026,303.839661 1245.084473,303.839691 1243.216797,303.839661 
	C1232.221436,303.839600 1221.224243,303.730164 1210.231934,303.911316 
	C1207.242554,303.960571 1205.468994,302.967468 1203.665039,300.610626 
	C1191.930664,285.279602 1179.972534,270.120026 1168.204590,254.814453 
	C1166.227295,252.242737 1164.219604,250.907379 1160.778687,251.078766 
	C1154.332397,251.399811 1147.858765,251.171173 1140.928101,251.171173 
	C1140.928101,268.782104 1140.928101,286.017670 1140.928101,303.542969 
	C1127.699707,303.542969 1114.941528,303.542969 1101.846191,303.542969 
	C1101.846191,279.882050 1101.846191,256.147186 1101.846191,231.997284 
	C1103.716675,231.997284 1105.507568,231.997284 1107.298462,231.997284 
	C1131.954834,231.997284 1156.611328,232.057098 1181.267090,231.933868 
	C1185.039795,231.915024 1188.952271,231.538574 1192.549316,230.477646 
	C1200.464233,228.143188 1204.446411,221.992157 1203.945435,213.926361 
	C1203.468750,206.249054 1198.794434,200.729111 1190.911865,199.175400 
	C1187.020752,198.408417 1182.986938,198.066940 1179.015747,198.052017 
	C1153.376221,197.955704 1127.736084,198.002716 1102.142578,198.002716 
	C1099.662354,184.948669 1105.105225,178.032028 1117.869141,178.017685 
	C1142.858398,177.989609 1167.851685,177.833679 1192.834473,178.255707 
	C1201.433105,178.400955 1210.108887,179.577301 1218.566162,181.224030 
	C1232.866821,184.008530 1241.765869,196.224060 1243.068604,214.088440 
z"/>
<path fill="#FCFCFC" opacity="1.000000" stroke="none" 
	d="
M1051.851807,203.120667 
	C1064.388672,236.709045 1076.809204,269.926270 1089.389038,303.569366 
	C1076.088867,303.569366 1063.356689,303.569366 1050.186401,303.569366 
	C1045.328613,291.171753 1040.245728,278.584991 1035.515381,265.867065 
	C1034.270630,262.520599 1032.696411,261.365997 1029.090820,261.422333 
	C1014.604126,261.648773 1000.110901,261.600433 985.622253,261.448669 
	C982.522400,261.416168 980.989380,262.239471 979.841248,265.323608 
	C975.040710,278.218201 969.890564,290.982635 964.925476,303.649475 
	C951.822021,303.649475 939.052551,303.649475 925.731995,303.649475 
	C930.361145,291.215790 934.840149,279.120392 939.366089,267.042572 
	C948.214417,243.429733 957.093445,219.828384 965.950989,196.218964 
	C971.174622,182.295624 977.323914,177.999680 992.098511,177.995789 
	C1002.757996,177.992981 1013.417542,177.983429 1024.077026,177.998260 
	C1037.194946,178.016525 1043.612305,182.317184 1048.520264,194.391937 
	C1049.644043,197.156631 1050.666504,199.962524 1051.851807,203.120667 
M993.079529,229.616241 
	C991.567505,233.960571 990.055420,238.304901 988.429321,242.976944 
	C1001.376038,242.976944 1013.777283,242.976944 1026.801392,242.976944 
	C1023.522522,233.931656 1020.368469,225.248230 1017.227173,216.560181 
	C1014.089966,207.883484 1010.965454,199.202194 1007.584595,189.827576 
	C1002.644043,203.372681 997.992493,216.125336 993.079529,229.616241 
z"/>
<path fill="#FDFDFD" opacity="1.000000" stroke="none" 
	d="
M1261.728638,287.997314 
	C1261.728638,269.181549 1261.728638,250.865005 1261.728638,231.997681 
	C1263.702393,231.997681 1265.483398,231.997665 1267.264526,231.997665 
	C1291.930908,231.997665 1316.597534,232.045975 1341.263428,231.944611 
	C1344.885010,231.929718 1348.626343,231.656906 1352.099121,230.716248 
	C1360.328491,228.487167 1364.392822,222.494019 1364.030151,214.023590 
	C1363.690796,206.098709 1358.966309,200.655396 1350.641724,199.109818 
	C1346.899658,198.415024 1343.041138,198.062408 1339.233887,198.049088 
	C1313.590210,197.959320 1287.946167,198.002319 1262.350342,198.002319 
	C1259.990723,184.449478 1265.196655,178.024002 1278.479980,178.014130 
	C1303.146118,177.995789 1327.816650,177.821747 1352.476074,178.248245 
	C1361.244995,178.399902 1370.115234,179.485504 1378.710449,181.255554 
	C1390.896606,183.765106 1398.055420,192.064713 1401.569458,203.828461 
	C1405.678955,217.585678 1402.359009,233.894974 1392.188232,240.713776 
	C1385.364258,245.288666 1376.981567,247.538605 1368.860352,251.015488 
	C1381.833008,267.760803 1395.474243,285.368896 1409.783203,303.839111 
	C1397.041504,303.839111 1385.298096,303.496033 1373.590088,303.990448 
	C1368.109985,304.221832 1364.908691,302.291809 1361.733643,298.063660 
	C1350.637329,283.286926 1339.216675,268.750397 1327.697998,254.299042 
	C1326.407349,252.679764 1323.747314,251.430573 1321.647949,251.310532 
	C1315.017944,250.931381 1308.352539,251.170654 1301.244751,251.170654 
	C1301.244751,268.586975 1301.244751,285.828613 1301.244751,303.453308 
	C1287.929932,303.453308 1275.066284,303.453308 1261.728638,303.453308 
	C1261.728638,298.413177 1261.728638,293.454865 1261.728638,287.997314 
z"/>
<path fill="#FCFCFC" opacity="1.000000" stroke="none" 
	d="
M1499.000000,196.175537 
	C1486.203003,196.175537 1473.905884,196.175537 1461.319946,196.175537 
	C1461.319946,207.395691 1461.319946,218.288971 1461.319946,229.486832 
	C1490.100586,229.486832 1518.714478,229.486832 1547.278687,229.486832 
	C1549.041626,240.681473 1542.854614,247.918839 1531.438965,247.974792 
	C1509.781494,248.080948 1488.123169,248.005829 1466.465210,248.005997 
	C1464.824951,248.006012 1463.184692,248.005997 1461.291992,248.005997 
	C1461.291992,260.524780 1461.291992,272.762085 1461.291992,285.401978 
	C1493.125610,285.401978 1524.868286,285.401978 1556.544678,285.401978 
	C1558.350464,296.786072 1552.380859,303.617523 1540.560913,303.807678 
	C1530.067993,303.976440 1519.569946,303.844086 1509.074219,303.843903 
	C1485.750244,303.843506 1462.426147,303.881836 1439.102295,303.823364 
	C1429.313354,303.798828 1424.239624,300.628723 1422.441284,293.500275 
	C1421.960205,291.593872 1421.893311,289.545105 1421.891235,287.561432 
	C1421.858765,256.407349 1421.817383,225.253113 1421.894653,194.099182 
	C1421.922363,182.871567 1426.840698,178.031662 1438.149902,178.015686 
	C1476.801025,177.961105 1515.452148,177.992722 1554.103271,178.003723 
	C1555.073608,178.003998 1556.043945,178.146790 1556.994263,178.221527 
	C1557.215820,191.202225 1552.512817,196.135391 1539.983521,196.167450 
	C1526.489136,196.201965 1512.994507,196.175430 1499.000000,196.175537 
z"/>
<path fill="#FCFCFC" opacity="1.000000" stroke="none" 
	d="
M1360.860596,371.516327 
	C1335.600708,371.516327 1310.822510,371.516327 1285.748535,371.516327 
	C1285.748535,382.735962 1285.748535,393.480591 1285.748535,404.641083 
	C1314.401733,404.641083 1342.980713,404.641083 1371.487671,404.641083 
	C1373.373291,415.785919 1367.429565,423.047760 1356.284302,423.126740 
	C1334.629272,423.280212 1312.972412,423.173187 1291.316284,423.174103 
	C1289.521729,423.174164 1287.727173,423.174133 1285.725586,423.174133 
	C1285.725586,435.900848 1285.725586,448.138763 1285.725586,460.785156 
	C1317.755249,460.785156 1349.512573,460.785156 1381.232056,460.785156 
	C1382.224976,472.483704 1376.626343,478.941040 1365.373047,478.970306 
	C1330.890137,479.059967 1296.406616,479.056702 1261.923706,478.955048 
	C1251.439697,478.924164 1246.242920,473.798889 1246.194214,463.203857 
	C1246.050293,431.886505 1246.044434,400.567535 1246.196167,369.250275 
	C1246.248413,358.458771 1251.148315,353.301117 1261.686279,353.252991 
	C1300.999512,353.073456 1340.314087,353.168457 1379.628174,353.178955 
	C1380.257935,353.179108 1380.887695,353.413818 1381.481445,353.531921 
	C1381.594604,366.238525 1376.642090,372.665863 1360.860596,371.516327 
z"/>
<path fill="#FDFDFD" opacity="1.000000" stroke="none" 
	d="
M646.000000,479.003479 
	C623.837280,479.003479 602.174500,479.025757 580.511841,478.994965 
	C567.782898,478.976868 563.013062,474.213440 563.003357,461.513611 
	C562.980225,431.352417 562.981323,401.191254 563.002930,371.030060 
	C563.012268,357.928375 567.666870,353.187134 580.687683,353.174255 
	C619.670471,353.135712 658.653259,353.160400 697.601196,353.160400 
	C700.098328,363.815491 693.858154,371.376984 682.222961,371.465057 
	C661.894470,371.618988 641.564026,371.511597 621.234375,371.513428 
	C615.084473,371.513977 608.934570,371.513489 602.477417,371.513489 
	C602.477417,382.603638 602.477417,393.353516 602.477417,404.637268 
	C631.150574,404.637268 659.868103,404.637268 688.529297,404.637268 
	C689.698914,416.418701 684.074341,423.055634 672.871338,423.129089 
	C651.376160,423.269989 629.879395,423.171417 608.383301,423.172211 
	C606.564392,423.172272 604.745483,423.172180 602.546387,423.172180 
	C602.546387,435.627228 602.546387,447.856934 602.546387,460.662750 
	C634.296265,460.662750 666.176514,460.662750 698.026428,460.662750 
	C698.587402,473.264008 693.354004,478.927368 681.493469,478.990021 
	C669.829285,479.051636 658.164490,479.003448 646.000000,479.003479 
z"/>
<path fill="#FCFCFC" opacity="1.000000" stroke="none" 
	d="
M1560.863647,392.120605 
	C1560.807373,400.783325 1558.714844,408.257477 1553.631592,414.915863 
	C1550.000244,419.672302 1545.350708,423.051239 1539.686035,423.813599 
	C1525.381104,425.738861 1510.996704,428.027740 1496.617188,428.227142 
	C1473.228394,428.551453 1467.149292,439.930695 1468.015015,459.054474 
	C1468.028931,459.365845 1468.200806,459.670044 1468.465332,460.498901 
	C1499.846802,460.498901 1531.387207,460.498901 1562.884399,460.498901 
	C1563.755371,472.820129 1558.249634,478.964661 1546.519287,478.984955 
	C1512.859985,479.043274 1479.200439,479.041046 1445.541016,478.986023 
	C1433.776978,478.966797 1428.822632,474.282776 1429.246216,462.654633 
	C1429.583740,453.390594 1430.274048,444.028046 1432.060913,434.955994 
	C1434.355835,423.302887 1441.841797,415.575775 1453.834839,413.876068 
	C1466.651245,412.059631 1479.620361,411.342651 1492.501709,409.950531 
	C1498.406372,409.312439 1504.402344,408.727814 1510.101074,407.178192 
	C1516.743164,405.372070 1520.697876,400.706177 1521.119873,393.441620 
	C1521.583008,385.466797 1519.355713,378.536407 1511.825562,375.145782 
	C1506.969360,372.959076 1501.249390,371.367615 1496.007812,371.596680 
	C1477.074097,372.424164 1458.178345,374.130371 1439.269531,375.521057 
	C1437.304565,375.665588 1435.347534,375.918304 1432.934692,376.167511 
	C1432.204590,369.817688 1431.509644,363.773987 1430.716675,356.878357 
	C1441.870239,355.608795 1452.676270,353.839661 1463.545410,353.267456 
	C1479.993774,352.401550 1496.490601,351.974274 1512.957397,352.167603 
	C1520.002686,352.250275 1527.151733,353.871307 1534.030762,355.653412 
	C1549.923340,359.770599 1557.814331,371.033661 1560.252441,386.704529 
	C1560.508301,388.348969 1560.653687,390.010529 1560.863647,392.120605 
z"/>
<path fill="#FEFEFE" opacity="1.000000" stroke="none" 
	d="
M821.805603,276.799652 
	C818.980469,279.418213 816.416992,281.796600 813.175537,284.804016 
	C847.020569,284.804016 880.170227,284.804016 914.444031,284.804016 
	C913.052002,289.522491 912.393555,293.636139 910.648315,297.220612 
	C908.145935,302.360321 903.108398,303.192261 897.850464,303.182861 
	C875.520996,303.142944 853.191223,303.142517 830.861694,303.177216 
	C813.201538,303.204681 795.541382,303.292023 777.881348,303.377228 
	C769.004395,303.420044 763.100891,295.018372 766.715210,286.274017 
	C768.546204,281.843994 771.828613,277.651062 775.385742,274.355743 
	C799.707764,251.823975 824.278320,229.560410 848.765259,207.206543 
	C852.446594,203.845871 856.109680,200.465271 860.563538,196.375519 
	C828.424377,196.375519 797.243958,196.375519 765.805298,196.375519 
	C765.805298,190.094818 765.805298,184.329468 765.805298,178.225494 
	C767.281616,178.148453 768.715881,178.008667 770.150208,178.008240 
	C809.476990,177.996399 848.803711,177.997864 888.130493,178.002335 
	C889.629700,178.002502 891.130432,178.021332 892.627869,178.088852 
	C898.161377,178.338287 903.556030,179.342209 905.899658,185.106995 
	C908.450317,191.381271 906.996765,197.502899 902.345581,202.174515 
	C894.007080,210.549774 885.269775,218.534149 876.577209,226.549606 
	C858.449341,243.265244 840.242004,259.894653 821.805603,276.799652 
z"/>
<path fill="#FAFAFA" opacity="1.000000" stroke="none" 
	d="
M713.398193,279.999725 
	C713.398254,245.874649 713.398254,212.249573 713.398254,178.307892 
	C726.577942,178.307892 739.450195,178.307892 752.563232,178.307892 
	C752.563232,219.980209 752.563232,261.553925 752.563232,303.486755 
	C739.643921,303.486755 726.781799,303.486755 713.398193,303.486755 
	C713.398193,295.747864 713.398193,288.123810 713.398193,279.999725 
z"/>
<path fill="#FDFDFD" opacity="1.000000" stroke="none" 
	d="
M1035.624878,476.945496 
	C1035.618530,435.520599 1035.618530,394.591034 1035.618530,353.413544 
	C1048.816040,353.413544 1061.559937,353.413544 1074.599121,353.413544 
	C1074.599121,395.105774 1074.599121,436.669128 1074.599121,479.002594 
	C1070.557495,479.002594 1066.315063,479.002563 1062.072754,479.002563 
	C1054.578735,479.002563 1047.083130,479.077942 1039.591919,478.932312 
	C1038.262451,478.906494 1036.951050,477.961426 1035.624878,476.945496 
z"/>
<path fill="#020202" opacity="0.000000" stroke="none" 
	d="
M602.159668,257.075134 
	C602.159607,254.280670 602.159607,251.974564 602.159607,248.999451 
	C606.452209,248.999451 610.537231,248.914673 614.617615,249.015839 
	C625.567810,249.287323 636.540405,249.294830 647.456726,250.072449 
	C655.411255,250.639084 660.803528,255.473785 661.943542,261.600891 
	C663.311523,268.952942 659.848511,276.266663 652.686523,279.778625 
	C648.869263,281.650421 644.631897,283.582764 640.513184,283.751160 
	C627.931274,284.265533 615.315063,283.937927 602.159729,283.937927 
	C602.159729,275.075928 602.159729,266.319733 602.159668,257.075134 
z"/>
<path fill="#020202" opacity="0.000000" stroke="none" 
	d="
M657.217896,208.062561 
	C661.940796,220.909302 656.394226,229.456985 642.715881,229.926987 
	C629.444336,230.382996 616.144897,230.025940 602.508667,230.025940 
	C602.508667,219.451324 602.508667,208.944931 602.508667,198.188370 
	C615.851013,198.188370 629.109253,197.893784 642.344604,198.315826 
	C648.717163,198.519043 654.229980,201.337067 657.217896,208.062561 
z"/>
<path fill="#030303" opacity="0.000000" stroke="none" 
	d="
M993.210205,229.247116 
	C997.992493,216.125336 1002.644043,203.372681 1007.584595,189.827576 
	C1010.965454,199.202194 1014.089966,207.883484 1017.227173,216.560181 
	C1020.368469,225.248230 1023.522522,233.931656 1026.801392,242.976944 
	C1013.777283,242.976944 1001.376038,242.976944 988.429321,242.976944 
	C990.055420,238.304901 991.567505,233.960571 993.210205,229.247116 
z"/>
</svg>