<!DOCTYPE svg PUBLIC "-//W3C//DTD SVG 1.1//EN" "http://www.w3.org/Graphics/SVG/1.1/DTD/svg11.dtd">
<!-- Uploaded to: SVG Repo, www.svgrepo.com, Transformed by: SVG Repo Mixer Tools -->
<svg width="800px" height="800px" viewBox="-3.6 -3.6 31.20 31.20" xmlns="http://www.w3.org/2000/svg" fill="none" stroke="#ffffff" stroke-width="1.9200000000000004" stroke-linecap="round" stroke-linejoin="miter">
<g id="SVGRepo_bgCarrier" stroke-width="0"/>
<g id="SVGRepo_tracerCarrier" stroke-linecap="round" stroke-linejoin="round"/>
<g id="SVGRepo_iconCarrier">
<path d="M9,3H8A3,3,0,0,0,5,6V9a3,3,0,0,1-3,3H2a3,3,0,0,1,3,3v4a3,3,0,0,0,3,3H9"/>
<path d="M15,3h1a3,3,0,0,1,3,3V9a3,3,0,0,0,3,3h0a3,3,0,0,0-3,3v4a3,3,0,0,1-3,3H15"/>
</g>
</svg>