<svg version="1.1" id="Layer_1" xmlns="http://www.w3.org/2000/svg" xmlns:xlink="http://www.w3.org/1999/xlink" x="0px" y="0px"
	 width="100%" viewBox="0 0 1600 1600" enable-background="new 0 0 1600 1600" xml:space="preserve">
<path fill="#000000" opacity="0.000000" stroke="none" 
	d="
M1088.000000,1601.000000 
	C725.333435,1601.000000 363.166870,1601.000000 1.000243,1601.000000 
	C1.000162,1067.666992 1.000162,534.333862 1.000081,1.000601 
	C534.332947,1.000401 1067.665894,1.000401 1600.999023,1.000200 
	C1600.999390,534.332764 1600.999390,1067.665527 1600.999756,1600.999146 
	C1430.166626,1601.000000 1259.333374,1601.000000 1088.000000,1601.000000 
M904.004578,1248.507690 
	C917.074890,1233.822388 930.360718,1219.321899 943.161987,1204.405762 
	C959.900085,1184.902588 981.046631,1176.073608 1006.528564,1176.117432 
	C1086.855225,1176.255859 1167.182739,1176.314697 1247.508667,1176.026367 
	C1261.110840,1175.977539 1274.864746,1175.027466 1288.277588,1172.836060 
	C1344.131226,1163.711182 1390.180786,1136.809692 1425.868774,1093.114014 
	C1459.663940,1051.735840 1476.677734,1003.956360 1476.373047,950.278259 
	C1476.304199,938.156677 1476.362915,926.034424 1476.362915,913.731628 
	C1426.243164,913.731628 1376.643677,913.731628 1326.582153,913.731628 
	C1326.582153,925.268311 1326.572144,936.570923 1326.584839,947.873535 
	C1326.598267,959.824768 1324.979736,971.518066 1319.592407,982.288635 
	C1305.016602,1011.428894 1281.158203,1026.055786 1248.691040,1026.114014 
	C1167.364502,1026.260010 1086.037598,1026.169922 1004.710815,1026.157959 
	C984.469543,1026.154907 964.495544,1028.334106 944.920654,1033.578613 
	C898.715210,1045.957764 860.228455,1070.557617 829.090637,1106.815918 
	C821.656311,1115.472778 813.937256,1123.885132 806.135864,1132.649536 
	C804.739380,1130.868530 803.688782,1129.608276 802.723755,1128.285645 
	C789.032043,1109.521240 774.151489,1091.804932 755.990662,1077.170044 
	C713.309448,1042.775757 664.410706,1026.101807 609.658936,1026.144775 
	C524.665833,1026.211548 439.672546,1026.186035 354.679474,1026.109009 
	C349.043335,1026.104004 343.347748,1025.721680 337.782043,1024.856812 
	C303.850647,1019.584290 276.836395,988.864685 276.019348,954.527771 
	C275.698853,941.057983 275.966888,927.574341 275.966888,913.795410 
	C225.799988,913.795410 176.053619,913.795410 125.889183,913.795410 
	C126.459717,939.373352 124.315201,964.863647 129.040237,990.136902 
	C140.123764,1049.420410 169.819595,1097.200928 218.244507,1132.985229 
	C258.376984,1162.641724 303.927063,1176.195923 353.685974,1176.177124 
	C439.179108,1176.144775 524.672241,1176.196411 610.165405,1176.152222 
	C637.344055,1176.138184 659.062805,1186.708862 675.360535,1208.630981 
	C696.910706,1237.618286 718.621887,1266.486938 740.411072,1295.295288 
	C770.420654,1334.971802 825.737793,1336.835327 858.694336,1299.457275 
	C873.568909,1282.587036 888.581970,1265.838989 904.004578,1248.507690 
M232.781464,459.244781 
	C230.700256,460.617615 228.610336,461.977478 226.539124,463.365204 
	C194.519974,484.819031 169.520462,512.572754 151.195999,546.500854 
	C127.188171,590.951843 123.102150,638.820312 126.636208,688.227295 
	C175.983627,688.227295 225.728699,688.227295 275.927765,688.227295 
	C275.927765,674.485718 275.876129,661.021301 275.945007,647.557434 
	C275.995148,637.755737 278.298615,628.376465 282.645660,619.672485 
	C297.122040,590.686829 320.860840,576.118225 353.122375,576.056519 
	C439.111023,575.891907 525.100342,576.069641 611.088989,575.912109 
	C621.715820,575.892639 632.415405,575.249023 642.952393,573.893250 
	C679.199097,569.229248 712.342651,556.321472 742.384033,535.427429 
	C765.640076,519.252686 784.718506,499.004486 801.064270,476.027557 
	C802.638123,473.815216 804.312073,471.674164 805.979736,469.446289 
	C818.606445,483.318573 830.133362,497.209290 842.925781,509.815735 
	C888.028870,554.263000 942.681702,575.885315 1005.866394,575.973389 
	C1086.355835,576.085571 1166.845703,575.999817 1247.335327,576.004517 
	C1249.501099,576.004700 1251.669800,576.003113 1253.832397,576.103210 
	C1290.522095,577.801636 1319.428955,602.667480 1325.048828,639.000061 
	C1327.169067,652.707092 1326.173950,666.897339 1326.572998,680.868103 
	C1326.642212,683.294678 1326.582764,685.724976 1326.582764,688.207764 
	C1376.832520,688.207764 1426.409546,688.207764 1476.093994,688.207764 
	C1476.093994,672.936279 1476.537354,657.948364 1476.014771,642.994202 
	C1474.084351,587.752747 1454.492554,539.336426 1416.991821,498.913300 
	C1371.875488,450.280914 1315.541748,426.069763 1249.072021,426.015289 
	C1167.749146,425.948608 1086.426270,425.955627 1005.103333,426.026062 
	C980.726501,426.047180 960.459839,417.313324 944.248169,398.957123 
	C915.905212,366.864716 887.362305,334.948975 858.976562,302.894257 
	C844.620605,286.682770 826.951538,276.970978 805.168335,276.081146 
	C778.093323,274.975128 756.319519,285.675842 740.012268,307.277405 
	C718.450745,335.839020 696.850647,364.373901 675.571716,393.145569 
	C659.064575,415.465027 636.956726,425.987610 609.513794,425.993103 
	C524.024719,426.010223 438.535492,425.906982 353.046906,426.105255 
	C341.089661,426.133026 329.039124,426.886963 317.199188,428.519165 
	C287.175781,432.658051 259.425201,443.464691 232.781464,459.244781 
z"/>
<path fill="#FEFEFE" opacity="1.000000" stroke="none" 
	d="
M903.768433,1248.771484 
	C888.581970,1265.838989 873.568909,1282.587036 858.694336,1299.457275 
	C825.737793,1336.835327 770.420654,1334.971802 740.411072,1295.295288 
	C718.621887,1266.486938 696.910706,1237.618286 675.360535,1208.630981 
	C659.062805,1186.708862 637.344055,1176.138184 610.165405,1176.152222 
	C524.672241,1176.196411 439.179108,1176.144775 353.685974,1176.177124 
	C303.927063,1176.195923 258.376984,1162.641724 218.244507,1132.985229 
	C169.819595,1097.200928 140.123764,1049.420410 129.040237,990.136902 
	C124.315201,964.863647 126.459717,939.373352 125.889183,913.795410 
	C176.053619,913.795410 225.799988,913.795410 275.966888,913.795410 
	C275.966888,927.574341 275.698853,941.057983 276.019348,954.527771 
	C276.836395,988.864685 303.850647,1019.584290 337.782043,1024.856812 
	C343.347748,1025.721680 349.043335,1026.104004 354.679474,1026.109009 
	C439.672546,1026.186035 524.665833,1026.211548 609.658936,1026.144775 
	C664.410706,1026.101807 713.309448,1042.775757 755.990662,1077.170044 
	C774.151489,1091.804932 789.032043,1109.521240 802.723755,1128.285645 
	C803.688782,1129.608276 804.739380,1130.868530 806.135864,1132.649536 
	C813.937256,1123.885132 821.656311,1115.472778 829.090637,1106.815918 
	C860.228455,1070.557617 898.715210,1045.957764 944.920654,1033.578613 
	C964.495544,1028.334106 984.469543,1026.154907 1004.710815,1026.157959 
	C1086.037598,1026.169922 1167.364502,1026.260010 1248.691040,1026.114014 
	C1281.158203,1026.055786 1305.016602,1011.428894 1319.592407,982.288635 
	C1324.979736,971.518066 1326.598267,959.824768 1326.584839,947.873535 
	C1326.572144,936.570923 1326.582153,925.268311 1326.582153,913.731628 
	C1376.643677,913.731628 1426.243164,913.731628 1476.362915,913.731628 
	C1476.362915,926.034424 1476.304199,938.156677 1476.373047,950.278259 
	C1476.677734,1003.956360 1459.663940,1051.735840 1425.868774,1093.114014 
	C1390.180786,1136.809692 1344.131226,1163.711182 1288.277588,1172.836060 
	C1274.864746,1175.027466 1261.110840,1175.977539 1247.508667,1176.026367 
	C1167.182739,1176.314697 1086.855225,1176.255859 1006.528564,1176.117432 
	C981.046631,1176.073608 959.900085,1184.902588 943.161987,1204.405762 
	C930.360718,1219.321899 917.074890,1233.822388 903.768433,1248.771484 
z"/>
<path fill="#FFFFFF" opacity="1.000000" stroke="none" 
	d="
M233.101685,459.070190 
	C259.425201,443.464691 287.175781,432.658051 317.199188,428.519165 
	C329.039124,426.886963 341.089661,426.133026 353.046906,426.105255 
	C438.535492,425.906982 524.024719,426.010223 609.513794,425.993103 
	C636.956726,425.987610 659.064575,415.465027 675.571716,393.145569 
	C696.850647,364.373901 718.450745,335.839020 740.012268,307.277405 
	C756.319519,285.675842 778.093323,274.975128 805.168335,276.081146 
	C826.951538,276.970978 844.620605,286.682770 858.976562,302.894257 
	C887.362305,334.948975 915.905212,366.864716 944.248169,398.957123 
	C960.459839,417.313324 980.726501,426.047180 1005.103333,426.026062 
	C1086.426270,425.955627 1167.749146,425.948608 1249.072021,426.015289 
	C1315.541748,426.069763 1371.875488,450.280914 1416.991821,498.913300 
	C1454.492554,539.336426 1474.084351,587.752747 1476.014771,642.994202 
	C1476.537354,657.948364 1476.093994,672.936279 1476.093994,688.207764 
	C1426.409546,688.207764 1376.832520,688.207764 1326.582764,688.207764 
	C1326.582764,685.724976 1326.642212,683.294678 1326.572998,680.868103 
	C1326.173950,666.897339 1327.169067,652.707092 1325.048828,639.000061 
	C1319.428955,602.667480 1290.522095,577.801636 1253.832397,576.103210 
	C1251.669800,576.003113 1249.501099,576.004700 1247.335327,576.004517 
	C1166.845703,575.999817 1086.355835,576.085571 1005.866394,575.973389 
	C942.681702,575.885315 888.028870,554.263000 842.925781,509.815735 
	C830.133362,497.209290 818.606445,483.318573 805.979736,469.446289 
	C804.312073,471.674164 802.638123,473.815216 801.064270,476.027557 
	C784.718506,499.004486 765.640076,519.252686 742.384033,535.427429 
	C712.342651,556.321472 679.199097,569.229248 642.952393,573.893250 
	C632.415405,575.249023 621.715820,575.892639 611.088989,575.912109 
	C525.100342,576.069641 439.111023,575.891907 353.122375,576.056519 
	C320.860840,576.118225 297.122040,590.686829 282.645660,619.672485 
	C278.298615,628.376465 275.995148,637.755737 275.945007,647.557434 
	C275.876129,661.021301 275.927765,674.485718 275.927765,688.227295 
	C225.728699,688.227295 175.983627,688.227295 126.636208,688.227295 
	C123.102150,638.820312 127.188171,590.951843 151.195999,546.500854 
	C169.520462,512.572754 194.519974,484.819031 226.539124,463.365204 
	C228.610336,461.977478 230.700256,460.617615 233.101685,459.070190 
z"/>
</svg>